<?xml version="1.0" standalone="no"?>
<!DOCTYPE svg PUBLIC "-//W3C//DTD SVG 1.1//EN" "http://www.w3.org/Graphics/SVG/1.1/DTD/svg11.dtd" >
<svg xmlns="http://www.w3.org/2000/svg">
<metadata>Generated by IcoMoon</metadata>
<defs>
<font id="font-proflat" horiz-adv-x="1024">
<font-face units-per-em="1024" ascent="960" descent="-64" />
<missing-glyph horiz-adv-x="1024" />
<glyph unicode="&#x20;" horiz-adv-x="512" d="" />
<glyph unicode="&#xe900;" glyph-name="button_edit" d="M207.424 82.272l52 52-134.272 134.272-52-52v-61.152h73.152v-73.152h61.152zM506.272 612.576q0 12.576-12.576 12.576-5.728 0-9.728-4l-309.728-309.728q-4-4-4-9.728 0-12.576 12.576-12.576 5.728 0 9.728 4l309.728 309.728q4 4 4 9.728zM475.424 722.272l237.728-237.728-475.424-475.424h-237.728v237.728zM865.728 667.424q0-30.272-21.152-51.424l-94.848-94.848-237.728 237.728 94.848 94.272q20.576 21.728 51.424 21.728 30.272 0 52-21.728l134.272-133.728q21.152-22.272 21.152-52z" />
<glyph unicode="&#xe901;" glyph-name="faq" d="M956.8 307.2c32 48 51.2 99.2 51.2 156.8 0 48-12.8 92.8-38.4 137.6s-60.8 80-105.6 112c-44.8 32-96 57.6-156.8 76.8s-124.8 28.8-192 28.8c-92.8-3.2-176-19.2-252.8-51.2s-134.4-73.6-179.2-128c-44.8-54.4-67.2-115.2-67.2-179.2v0c0-64 22.4-124.8 67.2-179.2s105.6-96 179.2-128c76.8-32 160-48 249.6-48 25.6 0 51.2 0 80 3.2 73.6-64 156.8-108.8 256-134.4 19.2-6.4 38.4-9.6 64-12.8 6.4 0 12.8 0 16 6.4 6.4 3.2 9.6 9.6 9.6 16v0c0 0 0 3.2 0 6.4s0 6.4 0 6.4c0 0 0 3.2-3.2 6.4l-6.4 6.4c0 0 0 0-3.2 3.2s-3.2 6.4-3.2 6.4c-3.2 3.2-9.6 9.6-16 19.2-9.6 9.6-16 16-19.2 22.4-3.2 3.2-9.6 12.8-16 22.4s-12.8 19.2-19.2 28.8c-3.2 9.6-9.6 19.2-16 32s-9.6 28.8-16 41.6c57.6 32 105.6 73.6 137.6 121.6zM566.4 224c0-3.2 0-6.4-3.2-9.6s-6.4-3.2-9.6-3.2h-96c-3.2 0-6.4 0-9.6 3.2s-3.2 6.4-3.2 9.6v96c0 3.2 0 6.4 3.2 9.6s6.4 3.2 9.6 3.2h96c3.2 0 6.4 0 9.6-3.2 0 0 3.2-6.4 3.2-9.6v-96zM684.8 518.4c-3.2-12.8-9.6-22.4-12.8-32-6.4-6.4-12.8-16-22.4-22.4s-16-12.8-22.4-16-12.8-9.6-25.6-12.8c-9.6-6.4-19.2-16-28.8-25.6-6.4-9.6-9.6-19.2-9.6-25.6 0-3.2 0-9.6-3.2-12.8s-6.4-6.4-9.6-6.4h-96c-3.2 0-6.4 3.2-9.6 6.4-3.2 6.4-3.2 9.6-3.2 16v16c0 22.4 9.6 41.6 25.6 60.8s35.2 35.2 57.6 44.8c16 6.4 25.6 16 32 22.4s9.6 19.2 9.6 28.8c0 9.6-6.4 22.4-19.2 28.8-12.8 9.6-25.6 12.8-41.6 12.8s-32-3.2-41.6-12.8c-9.6-6.4-22.4-22.4-41.6-44.8-3.2-3.2-6.4-6.4-12.8-6.4-3.2 0-6.4 0-9.6 3.2l-64 51.2c-3.2 3.2-6.4 6.4-6.4 9.6s0 6.4 3.2 9.6c41.6 70.4 105.6 105.6 185.6 105.6 22.4 0 41.6-3.2 64-12.8s41.6-19.2 57.6-32 32-32 41.6-51.2c6.4-19.2 9.6-38.4 9.6-60.8 0-12.8-3.2-28.8-6.4-41.6z" />
<glyph unicode="&#xe902;" glyph-name="home_alt" d="M201.6 384l60.8-374.4h188.8v310.4h124.8v-310.4h185.6l64 374.4-310.4 313.6-313.6-313.6zM825.6 572.8v249.6h-124.8v-124.8l-185.6 185.6-499.2-499.2h124.8l374.4 374.4 371.2-374.4h124.8l-185.6 188.8z" />
<glyph unicode="&#xe903;" glyph-name="forum_topic_move2" d="M254.537 310.491l354.011-351.086 102.4 102.4-354.011 354.011c-55.589 55.589-58.514 146.286-2.926 201.874s149.211 55.589 204.8 0l204.8-204.8-58.514-64.366c-2.926-2.926-8.777-8.777-5.851-14.629-2.926-5.851-2.926-11.703 2.926-17.554 2.926-2.926 8.777-8.777 14.629-5.851h231.131c5.851 0 11.703 5.851 14.629 5.851 2.926 2.926 8.777 8.777 5.851 14.629v234.057c0 8.777-2.926 11.703-5.851 17.554-2.926 2.926-11.703 8.777-14.629 8.777-5.851 0-8.777 0-14.629-5.851l-67.291-67.291-204.8 204.8c-114.103 111.177-295.497 108.251-406.674-2.926-114.103-114.103-114.103-292.571 0-409.6z" />
<glyph unicode="&#xe904;" glyph-name="forum_topic_link" d="M883.566 720.091c-111.177 111.177-292.571 114.103-406.674 2.926l-204.8-204.8-67.291 67.291c-5.851 5.851-8.777 5.851-14.629 5.851-2.926 0-11.703-5.851-14.629-8.777-2.926-5.851-5.851-8.777-5.851-17.554v-234.057c-2.926-5.851 2.926-11.703 5.851-14.629 2.926 0 8.777-5.851 14.629-5.851h231.131c5.851-2.926 11.703 2.926 14.629 5.851 5.851 5.851 5.851 11.703 2.926 17.554 2.926 5.851-2.926 11.703-5.851 14.629l-58.514 64.366 204.8 204.8c55.589 55.589 149.211 55.589 204.8 0s52.663-146.286-2.926-201.874l-354.011-354.011 102.4-102.4 354.011 351.086c114.103 117.029 114.103 295.497 0 409.6z" />
<glyph unicode="&#xe905;" glyph-name="forum_mark_read" horiz-adv-x="1200" d="M252.179 104.119v217.791h-99.343c-22.925 0-42.030 15.284-42.030 38.209v443.224c0 22.925 15.284 38.209 42.030 38.209h703.045l103.164 103.164c-19.104 11.463-38.209 15.284-61.134 15.284h-764.179c-76.418 0-133.731-61.134-133.731-133.731v-534.925c0-76.418 87.881-87.881 133.731-87.881v-267.463h118.448l225.433 225.433-84.060 84.060-141.373-141.373zM878.806 321.91l-122.269-122.269h160.478c64.955 11.463 110.806 64.955 110.806 129.91v141.373l-122.269-122.269c-3.821-11.463-15.284-22.925-26.746-26.746zM1184.478 822.448l-76.418 76.418c-11.463 11.463-22.925 15.284-38.209 15.284s-26.746-3.821-38.209-15.284l-443.224-439.403-179.582 179.582c-11.463 11.463-22.925 15.284-38.209 15.284s-26.746-3.821-38.209-15.284l-76.418-76.418c-11.463-11.463-15.284-22.925-15.284-38.209s3.821-26.746 15.284-38.209l294.209-294.209c11.463-11.463 22.925-15.284 38.209-15.284s26.746 3.821 38.209 15.284l557.851 554.030c11.463 11.463 15.284 22.925 15.284 38.209s-3.821 26.746-15.284 38.209z" />
<glyph unicode="&#xe906;" glyph-name="forum_topic_hot" d="M356.937 23.771c-58.514 117.029-26.331 184.32 17.554 248.686 49.737 70.217 61.44 140.434 61.44 140.434s35.109-49.737 20.48-122.88c67.291 73.143 78.994 190.171 70.217 236.983 149.211-102.4 210.651-330.606 125.806-497.371 456.411 257.463 114.103 646.583 55.589 687.543 20.48-43.886 23.406-117.029-14.629-155.063-70.217 257.463-236.983 313.051-236.983 313.051 20.48-134.583-73.143-277.943-160.914-389.12-2.926 55.589-5.851 90.697-32.183 140.434-5.851-96.549-78.994-175.543-99.474-272.091-32.183-134.583 14.629-228.206 193.097-330.606v0 0z" />
<glyph unicode="&#xe907;" glyph-name="announce" d="M263.314 869.303h-61.44c-14.629 0-29.257-2.926-29.257-26.331v-792.869c0-23.406 11.703-26.331 29.257-26.331h58.514c14.629 0 29.257 2.926 29.257 26.331v792.869h2.926c0 23.406-11.703 26.331-29.257 26.331v0zM877.714 649.874l-459.337 213.577c-32.183 14.629-61.44 2.926-61.44-26.331v-418.377c0-29.257 26.331-40.96 61.44-26.331l459.337 213.577c0 0 14.629 8.777 14.629 20.48 0 14.629-17.554 23.406-14.629 23.406v0z" />
<glyph unicode="&#xe908;" glyph-name="button_delete" d="M854.4 204.8c0-16-6.4-28.8-16-38.4l-76.8-76.8c-9.6-9.6-22.4-16-38.4-16s-28.8 6.4-38.4 16l-169.6 166.4-169.6-169.6c-9.6-9.6-22.4-16-38.4-16s-28.8 6.4-38.4 16l-76.8 76.8c-12.8 12.8-16 25.6-16 41.6s6.4 28.8 16 38.4l169.6 169.6-169.6 166.4c-12.8 9.6-16 22.4-16 38.4s6.4 28.8 16 38.4l76.8 80c9.6 9.6 22.4 16 38.4 16s28.8-6.4 38.4-16l169.6-169.6 166.4 169.6c9.6 9.6 22.4 16 38.4 16s28.8-6.4 38.4-16l76.8-76.8c9.6-9.6 16-22.4 16-38.4s-6.4-28.8-16-38.4l-169.6-166.4 169.6-169.6c12.8-12.8 19.2-25.6 19.2-41.6z" />
<glyph unicode="&#xe909;" glyph-name="button_dropdown_select" d="M809.6 556.8c0-9.6-3.2-19.2-9.6-25.6l-256-256c-6.4-6.4-16-9.6-25.6-9.6s-19.2 3.2-25.6 9.6l-256 256c-9.6 9.6-12.8 16-12.8 25.6s3.2 19.2 9.6 25.6c6.4 6.4 16 9.6 25.6 9.6h512c9.6 0 19.2-3.2 25.6-9.6s12.8-16 12.8-25.6z" />
<glyph unicode="&#xe90a;" glyph-name="button_forward" d="M236.8 121.6l-51.2 51.2c-12.8 12.8-22.4 32-22.4 51.2s6.4 35.2 19.2 48l284.8 284.8h-236.8c-19.2 0-38.4 6.4-51.2 22.4-16 16-22.4 32-22.4 51.2v60.8c0 19.2 6.4 38.4 22.4 51.2 12.8 12.8 32 22.4 51.2 22.4h528c19.2 0 38.4-6.4 51.2-22.4 12.8-12.8 22.4-32 22.4-51.2v-524.8c0-19.2-6.4-38.4-22.4-51.2-12.8-12.8-32-22.4-51.2-22.4h-60.8c-19.2 0-38.4 6.4-51.2 22.4-12.8 12.8-22.4 32-22.4 51.2v236.8l-288-284.8c-12.8-12.8-32-19.2-48-19.2-22.4 0-38.4 9.6-51.2 22.4z" />
<glyph unicode="&#xe90b;" glyph-name="button_info" d="M409.6 723.2v128c0 9.6 3.2 19.2 9.6 25.6s16 9.6 25.6 9.6h147.2c9.6 0 19.2-3.2 25.6-9.6 6.4-9.6 9.6-16 9.6-25.6v-128c0-9.6-3.2-19.2-9.6-25.6-6.4-9.6-16-12.8-25.6-12.8h-147.2c-9.6 0-19.2 3.2-25.6 9.6-6.4 9.6-9.6 19.2-9.6 28.8zM393.6 118.4l16 438.4c0 9.6 3.2 19.2 12.8 25.6 6.4 6.4 16 9.6 25.6 9.6h144c9.6 0 19.2-3.2 25.6-9.6s12.8-16 12.8-25.6l16-438.4c0-9.6-3.2-19.2-9.6-25.6s-16-9.6-25.6-9.6h-182.4c-9.6 0-19.2 3.2-25.6 9.6-9.6 6.4-12.8 16-9.6 25.6v0z" />
<glyph unicode="&#xe90c;" glyph-name="button_locked" d="M358.4 521.6h291.2v108.8c0 41.6-12.8 73.6-41.6 102.4s-64 41.6-102.4 41.6c-41.6 3.2-76.8-12.8-102.4-41.6-28.8-28.8-41.6-64-41.6-102.4l-3.2-108.8zM835.2 467.2v-329.6c0-16-6.4-28.8-16-38.4s-22.4-16-38.4-16h-550.4c-16 0-28.8 6.4-38.4 16s-16 22.4-16 38.4v329.6c0 16 6.4 28.8 16 38.4s22.4 16 38.4 16h19.2v108.8c0 70.4 25.6 131.2 76.8 179.2s112 76.8 179.2 76.8c70.4 0 131.2-25.6 179.2-76.8 51.2-51.2 76.8-112 76.8-179.2v-108.8h19.2c16 0 28.8-6.4 38.4-16s16-25.6 16-38.4v0z" />
<glyph unicode="&#xe90d;" glyph-name="button_modtools" d="M1011.2 83.2c0-19.2-6.4-38.4-22.4-51.2l-57.6-64c-16-12.8-32-22.4-51.2-22.4s-38.4 6.4-51.2 22.4l-208 208c-16 12.8-22.4 32-22.4 51.2s9.6 38.4 25.6 54.4l-147.2 147.2-73.6-73.6c-6.4-6.4-12.8-9.6-19.2-9.6s-12.8 3.2-19.2 9.6c0 0 3.2-3.2 6.4-6.4s6.4-6.4 6.4-6.4 3.2-3.2 6.4-6.4 6.4-6.4 6.4-6.4c0-3.2 3.2-3.2 3.2-6.4s3.2-6.4 3.2-9.6c0-3.2 0-6.4 0-9.6 0-16-6.4-28.8-16-38.4 0 0-3.2-3.2-9.6-9.6s-9.6-9.6-9.6-12.8c-3.2-3.2-6.4-6.4-9.6-9.6-6.4-3.2-9.6-6.4-12.8-9.6s-6.4-3.2-12.8-6.4c-6.4-3.2-9.6-3.2-16-3.2-16 0-28.8 6.4-38.4 16l-233.6 233.6c-9.6 9.6-16 22.4-16 38.4 0 6.4 0 9.6 3.2 16s3.2 9.6 6.4 12.8c0 3.2 3.2 6.4 6.4 12.8s6.4 9.6 9.6 9.6c3.2 3.2 6.4 6.4 12.8 9.6 6.4 6.4 9.6 9.6 9.6 9.6 12.8 9.6 25.6 16 38.4 16 3.2 0 6.4 0 9.6 0s6.4-3.2 9.6-3.2 6.4-3.2 6.4-3.2 3.2-3.2 6.4-6.4 6.4-6.4 6.4-6.4 3.2-3.2 6.4-6.4c3.2-3.2 6.4-6.4 6.4-6.4 0 6.4-3.2 12.8-3.2 19.2s3.2 12.8 9.6 19.2l198.4 198.4c6.4 6.4 12.8 9.6 19.2 9.6s12.8-3.2 19.2-9.6c0 0-3.2 3.2-6.4 6.4s-6.4 6.4-6.4 6.4-3.2 3.2-6.4 6.4-6.4 6.4-6.4 6.4c0 3.2-3.2 3.2-3.2 6.4s-3.2 6.4-3.2 9.6 0 6.4 0 9.6c0 16 6.4 28.8 16 38.4 0 0 3.2 3.2 9.6 9.6s9.6 9.6 9.6 12.8c3.2 3.2 6.4 6.4 9.6 9.6 6.4 9.6 9.6 12.8 12.8 12.8 3.2 3.2 6.4 3.2 12.8 6.4s9.6 3.2 16 3.2c16 0 28.8-6.4 38.4-16l233.6-233.6c9.6-9.6 16-22.4 16-38.4 0-6.4 0-9.6-3.2-16s-3.2-9.6-6.4-12.8-3.2-6.4-9.6-12.8c-3.2-6.4-6.4-9.6-9.6-9.6s-6.4-6.4-12.8-9.6c-6.4-6.4-9.6-9.6-9.6-9.6-12.8-9.6-25.6-16-38.4-16-3.2 0-6.4 0-9.6 0s-6.4 3.2-9.6 3.2c-3.2 0-6.4 3.2-6.4 3.2-3.2 0-3.2 3.2-6.4 6.4s-6.4 6.4-6.4 6.4-3.2 3.2-6.4 6.4-6.4 6.4-6.4 6.4c6.4-6.4 9.6-12.8 9.6-19.2s-3.2-12.8-9.6-19.2l-73.6-73.6 147.2-147.2c16 16 35.2 25.6 54.4 25.6s38.4-6.4 51.2-22.4l208-208c12.8-12.8 19.2-28.8 19.2-48v0 0z" />
<glyph unicode="&#xe90e;" glyph-name="button_post" d="M611.2 579.2c6.4-6.4 22.4 6.4 32 6.4 32 9.6 64 16 96 25.6 41.6 9.6 83.2 22.4 128 32 3.2-6.4 9.6 3.2 16 3.2 19.2-6.4 38.4-12.8 51.2-25.6 3.2-3.2 3.2-9.6 9.6-9.6 0-6.4-3.2-12.8 6.4-9.6 6.4-38.4 25.6-70.4 19.2-112-6.4-12.8-12.8-22.4-19.2-32-35.2-19.2-80-28.8-121.6-38.4-41.6-12.8-83.2-22.4-124.8-32 9.6-22.4 22.4-41.6 32-60.8 12.8-19.2 22.4-41.6 35.2-57.6 9.6-22.4 22.4-41.6 32-60.8 12.8-19.2 22.4-41.6 35.2-57.6-6.4-6.4 3.2-12.8 6.4-19.2-3.2 0 3.2-16 0-25.6 0-12.8-6.4-16-9.6-28.8-25.6-28.8-67.2-48-102.4-67.2-6.4 3.2-22.4-3.2-35.2 0 0 6.4-9.6 0-9.6 3.2v6.4c-3.2 0-6.4 0-9.6 0-3.2 3.2-9.6 9.6-12.8 12.8-28.8 28.8-48 83.2-73.6 118.4-28.8 44.8-54.4 92.8-80 137.6-16-19.2-28.8-44.8-41.6-70.4-16-22.4-28.8-48-41.6-70.4-28.8-44.8-48-99.2-86.4-134.4-6.4 3.2-6.4-3.2-9.6-6.4-3.2 0-9.6 3.2-9.6-3.2-9.6-3.2-32 3.2-32 0-38.4 19.2-76.8 35.2-105.6 67.2 0 9.6-6.4 16-9.6 25.6 0 9.6-3.2 22.4 3.2 28.8-3.2 3.2 0 3.2 3.2 9.6 0 3.2 0 9.6 0 9.6 9.6 19.2 25.6 38.4 35.2 57.6 3.2 6.4 6.4 12.8 9.6 16 28.8 51.2 64 112 96 163.2-41.6 12.8-86.4 22.4-128 35.2-44.8 9.6-86.4 19.2-121.6 38.4-6.4 12.8-12.8 22.4-19.2 32-6.4 41.6 12.8 73.6 19.2 112 9.6-3.2 0 12.8 9.6 9.6 0 3.2 3.2 6.4 6.4 9.6 9.6 9.6 22.4 16 35.2 22.4 3.2 0 16-3.2 12.8 3.2 83.2-16 179.2-44.8 265.6-70.4 9.6 83.2-6.4 188.8 9.6 265.6 12.8 22.4 32 38.4 60.8 41.6 35.2 0 73.6 3.2 102.4-6.4 16-9.6 25.6-22.4 35.2-35.2 6.4-73.6 0-172.8 0-259.2v0z" />
<glyph unicode="&#xe90f;" glyph-name="button_quote" d="M470.4 412.8v-220.8c0-32-9.6-57.6-32-76.8-22.4-22.4-48-32-76.8-32h-220.8c-32 0-57.6 9.6-76.8 32-22.4 19.2-32 44.8-32 76.8v403.2c0 38.4 6.4 76.8 22.4 112s35.2 67.2 64 92.8c25.6 25.6 57.6 48 92.8 64s73.6 22.4 112 22.4h35.2c9.6 0 19.2-3.2 25.6-9.6s9.6-16 9.6-25.6v-73.6c0-9.6-3.2-19.2-9.6-25.6s-16-9.6-25.6-9.6h-35.2c-41.6 0-73.6-12.8-102.4-41.6s-41.6-64-41.6-102.4v-22.4c0-16 6.4-28.8 16-38.4s22.4-16 38.4-16h128c32 0 57.6-9.6 76.8-32 22.4-22.4 32-48 32-76.8zM982.4 412.8v-220.8c0-32-9.6-57.6-32-76.8-22.4-22.4-48-32-76.8-32h-220.8c-32 0-57.6 9.6-76.8 32-22.4 22.4-32 48-32 76.8v403.2c0 38.4 6.4 76.8 22.4 112s35.2 67.2 64 92.8c25.6 25.6 57.6 48 92.8 64s73.6 22.4 112 22.4h35.2c9.6 0 19.2-3.2 25.6-9.6s9.6-16 9.6-25.6v-73.6c0-9.6-3.2-19.2-9.6-25.6s-16-9.6-25.6-9.6h-35.2c-41.6 0-73.6-12.8-102.4-41.6s-41.6-64-41.6-102.4v-22.4c0-16 6.4-28.8 16-38.4s22.4-16 38.4-16h128c32 0 57.6-9.6 76.8-32 22.4-22.4 32-48 32-76.8z" />
<glyph unicode="&#xe910;" glyph-name="button_reply" d="M777.6 736l51.2-51.2c12.8-12.8 22.4-32 22.4-51.2s-6.4-35.2-19.2-48l-284.8-284.8h236.8c19.2 0 38.4-6.4 51.2-22.4 16-16 22.4-32 22.4-51.2v-60.8c0-19.2-6.4-38.4-22.4-51.2-12.8-12.8-32-22.4-51.2-22.4h-528c-19.2 0-38.4 6.4-51.2 22.4-12.8 12.8-22.4 32-22.4 51.2v524.8c0 19.2 6.4 38.4 22.4 51.2 12.8 12.8 32 22.4 51.2 22.4h60.8c19.2 0 38.4-6.4 51.2-22.4 12.8-12.8 22.4-32 22.4-51.2v-236.8l284.8 284.8c12.8 12.8 32 19.2 48 19.2s38.4-9.6 54.4-22.4z" />
<glyph unicode="&#xe911;" glyph-name="button_report" d="M627.2 246.4v-128c0-9.6-3.2-19.2-9.6-25.6s-16-9.6-25.6-9.6h-147.2c-9.6 0-19.2 3.2-25.6 9.6s-9.6 16-9.6 25.6v128c0 9.6 3.2 19.2 9.6 25.6s16 9.6 25.6 9.6h147.2c9.6 0 19.2-3.2 25.6-9.6s9.6-16 9.6-25.6zM646.4 851.2l-16-438.4c0-9.6-3.2-19.2-12.8-25.6-6.4-6.4-16-9.6-25.6-9.6h-147.2c-9.6 0-19.2 3.2-25.6 9.6s-12.8 16-12.8 25.6l-12.8 438.4c0 9.6 3.2 19.2 9.6 25.6s16 9.6 25.6 9.6h182.4c9.6 0 19.2-3.2 25.6-9.6s9.6-16 9.6-25.6v0z" />
<glyph unicode="&#xe912;" glyph-name="button_responsive_menu_link" d="M956.8 192v-73.6c0-9.6-3.2-19.2-9.6-25.6s-16-9.6-25.6-9.6h-806.4c-9.6 0-19.2 3.2-25.6 9.6s-9.6 16-9.6 25.6v73.6c0 9.6 3.2 19.2 9.6 25.6s16 9.6 25.6 9.6h803.2c9.6 0 19.2-3.2 25.6-9.6 9.6-6.4 12.8-16 12.8-25.6zM956.8 483.2v-73.6c0-9.6-3.2-19.2-9.6-25.6s-16-9.6-25.6-9.6h-806.4c-9.6 0-19.2 3.2-25.6 9.6-6.4 9.6-9.6 16-9.6 28.8v73.6c0 9.6 3.2 19.2 9.6 25.6s16 9.6 25.6 9.6h803.2c9.6 0 19.2-3.2 25.6-9.6 9.6-9.6 12.8-16 12.8-28.8zM956.8 777.6v-73.6c0-9.6-3.2-19.2-9.6-25.6s-16-9.6-25.6-9.6h-806.4c-9.6 0-16 3.2-25.6 9.6-6.4 6.4-9.6 16-9.6 25.6v73.6c0 9.6 3.2 19.2 9.6 25.6s16 9.6 25.6 9.6h803.2c9.6 0 19.2-3.2 25.6-9.6 9.6-6.4 12.8-16 12.8-25.6z" />
<glyph unicode="&#xe913;" glyph-name="button_search_adv" d="M617.6 502.4v-35.2c0-6.4-3.2-9.6-6.4-12.8s-6.4-6.4-12.8-6.4h-128v-128c0-6.4-3.2-9.6-6.4-12.8s-6.4-6.4-12.8-6.4h-35.2c-6.4 0-9.6 3.2-12.8 6.4s-6.4 6.4-6.4 12.8v128h-128c-6.4 0-9.6 3.2-12.8 6.4s-6.4 6.4-6.4 12.8v35.2c0 6.4 3.2 9.6 6.4 12.8s6.4 6.4 12.8 6.4h128v128c0 6.4 3.2 9.6 6.4 12.8s6.4 6.4 12.8 6.4h35.2c6.4 0 9.6-3.2 12.8-6.4s6.4-6.4 6.4-12.8v-128h128c6.4 0 9.6-3.2 12.8-6.4s6.4-6.4 6.4-12.8zM691.2 483.2c0 70.4-25.6 131.2-73.6 182.4-51.2 51.2-108.8 73.6-182.4 73.6s-131.2-22.4-182.4-73.6c-51.2-51.2-73.6-108.8-73.6-182.4s25.6-131.2 73.6-182.4c48-51.2 108.8-73.6 182.4-73.6s131.2 25.6 182.4 73.6c48 54.4 73.6 112 73.6 182.4zM982.4 9.6c0-19.2-6.4-38.4-22.4-51.2s-32-22.4-51.2-22.4c-19.2 0-38.4 6.4-51.2 22.4l-195.2 195.2c-67.2-48-144-70.4-227.2-70.4-54.4 0-105.6 9.6-156.8 32s-92.8 51.2-128 86.4c-35.2 35.2-64 80-86.4 128-22.4 51.2-32 102.4-32 156.8s9.6 105.6 32 156.8 51.2 92.8 86.4 128c35.2 35.2 80 64 128 86.4s102.4 32 156.8 32c54.4 0 105.6-9.6 156.8-32s92.8-51.2 128-86.4 64-80 86.4-128c22.4-51.2 32-102.4 32-156.8 0-83.2-22.4-160-70.4-227.2l195.2-195.2c12.8-16 19.2-35.2 19.2-54.4v0z" />
<glyph unicode="&#xe914;" glyph-name="button_search_adv_alt" d="M649.6 448c0 41.6-12.8 73.6-41.6 102.4s-64 41.6-102.4 41.6c-41.6 0-73.6-12.8-102.4-41.6s-41.6-64-41.6-102.4c0-41.6 12.8-73.6 41.6-102.4s64-41.6 102.4-41.6c41.6 0 73.6 12.8 102.4 41.6 25.6 28.8 41.6 60.8 41.6 102.4zM940.8 508.8v-128c0-3.2 0-9.6-3.2-12.8s-6.4-6.4-12.8-6.4l-105.6-16c-6.4-19.2-16-38.4-22.4-51.2 12.8-19.2 35.2-44.8 60.8-80 3.2-3.2 6.4-9.6 6.4-12.8 0-6.4-3.2-9.6-6.4-12.8-9.6-12.8-28.8-35.2-57.6-60.8s-44.8-41.6-54.4-41.6c-3.2 0-9.6 3.2-16 6.4l-80 60.8c-16-9.6-35.2-16-51.2-22.4-6.4-51.2-12.8-86.4-16-105.6-3.2-9.6-9.6-16-19.2-16h-128c-6.4 0-9.6 3.2-12.8 6.4s-6.4 6.4-6.4 12.8l-16 105.6c-16 3.2-32 9.6-48 19.2l-80-60.8c-3.2-3.2-9.6-6.4-12.8-6.4-6.4 0-9.6 3.2-12.8 6.4-48 44.8-80 76.8-92.8 96-3.2 3.2-3.2 9.6-3.2 12.8s0 9.6 3.2 12.8c6.4 9.6 16 19.2 28.8 38.4 12.8 16 25.6 32 32 41.6-9.6 19.2-19.2 38.4-22.4 57.6l-105.6 16c-6.4 0-9.6 3.2-12.8 6.4s-9.6 6.4-9.6 12.8v128c0 3.2 0 9.6 3.2 12.8s6.4 6.4 9.6 6.4l105.6 16c6.4 16 12.8 35.2 22.4 51.2-12.8 22.4-32 48-57.6 80-3.2 3.2-6.4 9.6-6.4 12.8s3.2 9.6 6.4 12.8c9.6 12.8 28.8 35.2 54.4 60.8 28.8 28.8 48 41.6 54.4 41.6s9.6-3.2 16-6.4l80-60.8c16 9.6 35.2 16 51.2 22.4 6.4 51.2 12.8 86.4 16 105.6 3.2 9.6 9.6 16 19.2 16h128c6.4 0 9.6-3.2 12.8-6.4s6.4-6.4 6.4-12.8l16-105.6c19.2-6.4 35.2-12.8 51.2-22.4l83.2 64c3.2 3.2 9.6 6.4 12.8 6.4 6.4 0 9.6-3.2 12.8-6.4 48-44.8 80-76.8 92.8-96 3.2-3.2 3.2-6.4 3.2-12.8 0-3.2 0-9.6-3.2-12.8-6.4-9.6-16-19.2-28.8-38.4s-25.6-32-32-41.6c9.6-19.2 19.2-38.4 22.4-57.6l105.6-16c6.4 0 9.6-3.2 12.8-6.4 6.4-3.2 6.4-6.4 6.4-12.8z" />
<glyph unicode="&#xe915;" glyph-name="button_search" d="M691.2 483.2c0 70.4-25.6 131.2-73.6 182.4-51.2 51.2-108.8 73.6-182.4 73.6s-131.2-22.4-182.4-73.6c-51.2-51.2-73.6-108.8-73.6-182.4s25.6-131.2 73.6-182.4c48-51.2 108.8-73.6 182.4-73.6s131.2 25.6 182.4 73.6c48 54.4 73.6 112 73.6 182.4zM982.4 9.6c0-19.2-6.4-38.4-22.4-51.2-16-16-32-22.4-51.2-22.4s-38.4 6.4-51.2 22.4l-195.2 195.2c-67.2-48-144-70.4-227.2-70.4-54.4 0-105.6 9.6-156.8 32s-92.8 51.2-128 86.4c-35.2 35.2-64 80-86.4 128-22.4 51.2-32 102.4-32 156.8s9.6 105.6 32 156.8 51.2 92.8 86.4 128c35.2 35.2 80 64 128 86.4s102.4 32 156.8 32c54.4 0 105.6-9.6 156.8-32s92.8-51.2 128-86.4 64-80 86.4-128c22.4-51.2 32-102.4 32-156.8 0-83.2-22.4-160-70.4-227.2l195.2-195.2c12.8-16 19.2-35.2 19.2-54.4v0z" />
<glyph unicode="&#xe916;" glyph-name="button_sort" d="M678.4 64v-108.8c0-6.4-3.2-9.6-6.4-12.8s-6.4-6.4-12.8-6.4h-147.2c-6.4 0-9.6 3.2-12.8 6.4s-6.4 6.4-6.4 12.8v108.8c0 6.4 3.2 9.6 6.4 12.8s6.4 6.4 12.8 6.4h147.2c6.4 0 9.6-3.2 12.8-6.4s6.4-6.4 6.4-12.8zM403.2 137.6c0-3.2-3.2-9.6-6.4-12.8l-182.4-182.4c-3.2-3.2-6.4-6.4-9.6-6.4s-9.6 3.2-12.8 6.4l-182.4 182.4c-6.4 6.4-6.4 12.8-3.2 19.2s9.6 12.8 16 12.8h108.8v784c0 6.4 3.2 9.6 6.4 12.8s6.4 6.4 9.6 6.4h108.8c6.4 0 12.8-3.2 16-6.4s6.4-6.4 6.4-12.8v-787.2h108.8c6.4 0 9.6-3.2 12.8-6.4 3.2 0 3.2-3.2 3.2-9.6v0zM787.2 355.2v-108.8c0-6.4-3.2-9.6-6.4-12.8s-6.4-6.4-12.8-6.4h-256c-6.4 0-9.6 3.2-12.8 6.4s-6.4 6.4-6.4 12.8v108.8c0 6.4 3.2 9.6 6.4 12.8s6.4 6.4 12.8 6.4h256c6.4 0 9.6-3.2 12.8-6.4 6.4-3.2 6.4-6.4 6.4-12.8zM899.2 649.6v-108.8c0-6.4-3.2-9.6-6.4-12.8s-6.4-6.4-12.8-6.4h-364.8c-6.4 0-9.6 3.2-12.8 6.4s-6.4 6.4-6.4 12.8v108.8c0 6.4 3.2 9.6 6.4 12.8s6.4 6.4 12.8 6.4h364.8c6.4 0 9.6-3.2 12.8-6.4s6.4-6.4 6.4-12.8zM1008 940.8v-108.8c0-6.4-3.2-9.6-6.4-12.8s-6.4-6.4-12.8-6.4h-473.6c-6.4 0-9.6 3.2-12.8 6.4s-6.4 6.4-6.4 12.8v108.8c0 6.4 3.2 9.6 6.4 12.8s6.4 6.4 12.8 6.4h476.8c6.4 0 9.6-3.2 12.8-6.4s3.2-6.4 3.2-12.8z" />
<glyph unicode="&#xe917;" glyph-name="button_tools" d="M771.2 118.4c0 9.6 3.2 19.2 9.6 25.6s16 9.6 25.6 9.6c9.6 0 19.2-3.2 25.6-9.6s9.6-16 9.6-25.6-3.2-19.2-9.6-25.6c-6.4-6.4-16-9.6-25.6-9.6s-19.2 3.2-25.6 9.6c-3.2 6.4-9.6 16-9.6 25.6zM403.2 358.4l390.4-390.4c12.8-12.8 32-22.4 51.2-22.4s38.4 6.4 51.2 22.4l60.8 60.8c16 12.8 22.4 32 22.4 51.2s-6.4 38.4-22.4 51.2l-387.2 393.6c-16-38.4-35.2-70.4-64-99.2-32-28.8-64-51.2-102.4-67.2zM41.6 608c0-16 3.2-35.2 12.8-60.8 19.2-51.2 48-92.8 92.8-124.8s92.8-48 147.2-48c70.4 0 131.2 25.6 182.4 73.6 51.2 51.2 73.6 108.8 73.6 182.4s-25.6 131.2-73.6 182.4c-51.2 51.2-108.8 73.6-182.4 73.6-22.4 0-44.8-3.2-70.4-9.6-19.2-6.4-41.6-16-57.6-25.6-6.4-3.2-9.6-9.6-9.6-16s3.2-12.8 9.6-16l166.4-96v-128l-108.8-60.8c-3.2 0-16 9.6-44.8 28.8-28.8 16-54.4 32-76.8 44.8s-38.4 19.2-41.6 19.2c-6.4 0-9.6-3.2-12.8-6.4s-6.4-6.4-6.4-12.8v0z" />
<glyph unicode="&#xe918;" glyph-name="arrow_down" horiz-adv-x="576" d="M560 544c0-9.6-3.2-19.2-9.6-22.4l-236.8-236.8c-6.4-6.4-16-9.6-22.4-9.6-9.6 0-19.2 3.2-22.4 9.6l-236.8 236.8c-9.6 9.6-12.8 16-12.8 22.4s3.2 19.2 9.6 22.4c3.2 6.4 9.6 9.6 19.2 9.6h473.6c9.6 0 19.2-3.2 22.4-9.6 9.6-3.2 16-12.8 16-22.4z" />
<glyph unicode="&#xe919;" glyph-name="arrow_left" horiz-adv-x="352" d="M297.6 188.8c-9.6 0-19.2 3.2-22.4 9.6l-236.8 236.8c-6.4 6.4-9.6 16-9.6 22.4s3.2 19.2 9.6 22.4l236.8 236.8c6.4 12.8 12.8 16 22.4 16s16-3.2 22.4-9.6c6.4-6.4 9.6-16 9.6-22.4v-473.6c0-9.6-3.2-19.2-9.6-22.4-6.4-9.6-12.8-16-22.4-16z" />
<glyph unicode="&#xe91a;" glyph-name="arrow_right" horiz-adv-x="352" d="M60.8 732.8c9.6 0 19.2-3.2 22.4-9.6l236.8-236.8c6.4-6.4 9.6-16 9.6-22.4s-3.2-19.2-9.6-22.4l-236.8-236.8c-9.6-9.6-16-12.8-22.4-12.8s-19.2 0-25.6 6.4c-6.4 6.4-9.6 16-9.6 22.4v476.8c0 9.6 3.2 19.2 9.6 22.4 6.4 6.4 16 12.8 25.6 12.8z" />
<glyph unicode="&#xe91b;" glyph-name="arrow_up" horiz-adv-x="576" d="M16 307.2c0 9.6 3.2 19.2 9.6 22.4l236.8 236.8c6.4 6.4 16 9.6 22.4 9.6 9.6 0 19.2-3.2 22.4-9.6l236.8-236.8c9.6-9.6 12.8-16 12.8-22.4s-3.2-19.2-9.6-22.4c-6.4-6.4-16-9.6-22.4-9.6h-473.6c-9.6 0-19.2 3.2-22.4 9.6-6.4 3.2-12.8 12.8-12.8 22.4z" />
<glyph unicode="&#xe91c;" glyph-name="social-line-messenger-alt" d="M99.2 281.6v0 0h137.6c19.2 0 35.2 16 35.2 35.2v3.2c0 19.2-16 35.2-35.2 35.2h-99.2v227.2c0 19.2-16 35.2-35.2 35.2h-3.2c-19.2 0-35.2-16-35.2-35.2v-265.6c-3.2-19.2 12.8-35.2 35.2-35.2v0zM956.8 448v0c0 22.4-16 38.4-35.2 38.4h-99.2v57.6h99.2c19.2 0 35.2 16 35.2 35.2v3.2c0 19.2-16 35.2-35.2 35.2h-137.6c-19.2 0-35.2-16-35.2-35.2v-265.6c0-19.2 16-35.2 35.2-35.2h137.6c19.2 0 35.2 16 35.2 35.2v3.2c0 19.2-16 35.2-35.2 35.2h-99.2v57.6h99.2c19.2 0 35.2 16 35.2 35.2v0zM691.2 291.2v0c6.4 6.4 9.6 16 9.6 25.6v265.6c0 19.2-16 35.2-35.2 35.2h-3.2c-19.2 0-35.2-16-35.2-35.2v-156.8l-131.2 172.8c-6.4 9.6-19.2 19.2-32 19.2h-3.2c-19.2 0-35.2-16-35.2-35.2v-265.6c0-19.2 16-35.2 35.2-35.2h3.2c19.2 0 35.2 16 35.2 35.2v160l131.2-179.2c0 0 3.2-3.2 3.2-3.2v0c3.2-6.4 9.6-9.6 12.8-9.6 3.2-3.2 9.6-3.2 12.8-3.2h3.2c6.4 0 12.8 0 16 3.2 6.4 3.2 9.6 3.2 12.8 6.4v0zM336 281.6v0c22.4 0 38.4 16 38.4 35.2v265.6c0 19.2-16 35.2-35.2 35.2h-3.2c-19.2 0-35.2-16-35.2-35.2v-265.6c0-19.2 16-35.2 35.2-35.2z" />
<glyph unicode="&#xe91d;" glyph-name="social-line-messenger" d="M515.2 867.2c-246.4 0-448-160-448-358.4 0-176 160-323.2 368-352v0 0c6.4 0 9.6 0 16-3.2 70.4-16 9.6-105.6 32-121.6 25.6-22.4 230.4 115.2 355.2 230.4 19.2 16 35.2 32 48 48v0c3.2 3.2 6.4 6.4 9.6 9.6 41.6 54.4 67.2 118.4 67.2 188.8 0 198.4-201.6 358.4-448 358.4zM368 416c0-12.8-9.6-22.4-22.4-22.4h-89.6c-12.8 0-22.4 9.6-22.4 22.4v172.8c0 12.8 9.6 22.4 22.4 22.4h3.2c12.8 0 22.4-9.6 22.4-22.4v-147.2h64c12.8 0 22.4-9.6 22.4-25.6v0zM435.2 416c0-12.8-9.6-22.4-22.4-22.4h-3.2c-12.8 0-22.4 9.6-22.4 22.4v172.8c0 12.8 9.6 22.4 22.4 22.4h3.2c12.8 0 22.4-9.6 22.4-22.4v-172.8zM646.4 416c0-6.4-3.2-12.8-6.4-16v0c0-3.2-3.2-3.2-6.4-3.2-3.2-3.2-6.4-3.2-9.6-3.2h-3.2c-3.2 0-6.4 0-9.6 3.2-3.2 0-6.4 3.2-9.6 6.4v0c0 0 0 0-3.2 3.2l-86.4 115.2v-102.4c0-12.8-9.6-22.4-22.4-22.4h-3.2c-12.8 0-22.4 9.6-22.4 22.4v172.8c0 12.8 9.6 22.4 22.4 22.4h3.2c9.6 0 16-3.2 19.2-12.8l83.2-112v102.4c0 12.8 9.6 22.4 22.4 22.4h3.2c12.8 0 22.4-9.6 22.4-22.4v-176zM812.8 588.8c0-12.8-9.6-22.4-22.4-22.4h-64v-38.4h64c12.8 0 22.4-9.6 22.4-22.4v-3.2c0-12.8-9.6-22.4-22.4-22.4h-64v-38.4h64c12.8 0 22.4-9.6 22.4-22.4v-3.2c0-12.8-9.6-22.4-22.4-22.4h-89.6c-12.8 0-22.4 9.6-22.4 22.4v172.8c0 12.8 9.6 22.4 22.4 22.4v0 0h89.6c12.8 3.2 22.4-9.6 22.4-22.4v0z" />
<glyph unicode="&#xe91e;" glyph-name="feed" d="M326.4 156.8c0-32-9.6-57.6-32-76.8-22.4-22.4-48-32-76.8-32s-57.6 9.6-76.8 32c-22.4 22.4-32 48-32 76.8s9.6 57.6 32 76.8c22.4 22.4 48 32 76.8 32s57.6-9.6 76.8-32c22.4-19.2 32-44.8 32-76.8zM620.8 86.4c0-9.6-3.2-19.2-9.6-28.8s-16-12.8-25.6-12.8h-76.8c-9.6 0-19.2 3.2-25.6 9.6s-9.6 12.8-12.8 22.4c-9.6 86.4-44.8 163.2-105.6 224s-137.6 96-224 105.6c-9.6 0-16 3.2-22.4 12.8s-9.6 16-9.6 25.6v76.8c0 9.6 3.2 19.2 12.8 25.6 6.4 6.4 16 9.6 25.6 9.6h3.2c60.8-6.4 118.4-19.2 176-44.8 54.4-25.6 105.6-60.8 147.2-102.4 44.8-41.6 76.8-92.8 102.4-147.2 22.4-54.4 38.4-115.2 44.8-176zM912 86.4c0-9.6-3.2-19.2-9.6-25.6s-16-12.8-25.6-12.8h-83.2c-9.6 0-19.2 3.2-25.6 9.6s-9.6 16-9.6 25.6c-3.2 83.2-22.4 160-57.6 233.6s-76.8 137.6-131.2 192c-54.4 54.4-118.4 99.2-192 131.2s-153.6 54.4-236.8 57.6c-9.6 0-16 6.4-22.4 12.8s-9.6 16-9.6 22.4v83.2c0 9.6 3.2 19.2 12.8 25.6 3.2 6.4 12.8 9.6 22.4 9.6 99.2-6.4 195.2-28.8 288-67.2 92.8-41.6 172.8-96 243.2-169.6 70.4-70.4 128-150.4 169.6-243.2 38.4-89.6 60.8-185.6 67.2-284.8z" />
<glyph unicode="&#xe91f;" glyph-name="forum_topic_read" d="M832 876.8h-640c-64 0-112-51.2-112-112v-448c0-64 73.6-73.6 112-73.6v0 0-224h99.2l224 224h336c54.4 9.6 92.8 54.4 92.8 108.8v409.6c-3.2 64-51.2 115.2-112 115.2zM809.6 342.4h-336l-182.4-182.4v182.4h-83.2c-19.2 0-35.2 12.8-35.2 32v371.2c0 19.2 12.8 32 35.2 32h595.2c19.2 0 35.2-12.8 35.2-32l3.2-368c0-19.2-12.8-35.2-32-35.2z" />
<glyph unicode="&#xe920;" glyph-name="acp" horiz-adv-x="1088" d="M512 448q0 60.576-42.848 103.424t-103.424 42.848-103.424-42.848-42.848-103.424 42.848-103.424 103.424-42.848 103.424 42.848 42.848 103.424zM950.848 155.424q0 29.728-21.728 51.424t-51.424 21.728-51.424-21.728-21.728-51.424q0-30.272 21.44-51.712t51.712-21.44 51.712 21.44 21.44 51.712zM950.848 740.576q0 29.728-21.728 51.424t-51.424 21.728-51.424-21.728-21.728-51.424q0-30.272 21.44-51.712t51.712-21.44 51.712 21.44 21.44 51.712zM731.424 500v-105.728q0-5.728-4-11.136t-9.152-6.016l-88.576-13.728q-6.272-20-18.272-43.424 19.424-27.424 51.424-65.728 4-5.728 4-11.424 0-6.848-4-10.848-13.152-17.152-47.136-51.136t-44.864-34.016q-6.272 0-12 4l-65.728 51.424q-21.152-10.848-44-17.728-6.272-61.728-13.152-88.576-4-13.728-17.152-13.728h-106.272q-6.272 0-11.424 4.288t-5.728 10.016l-13.152 87.424q-19.424 5.728-42.848 17.728l-67.424-50.848q-4-4-11.424-4-6.272 0-12 4.576-82.272 76-82.272 91.424 0 5.152 4 10.848 5.728 8 23.424 30.272t26.848 34.848q-13.152 25.152-20 46.848l-86.848 13.728q-5.728 0.576-9.728 5.44t-4 11.136v105.728q0 5.728 4 11.136t9.152 6.016l88.576 13.728q6.272 20 18.272 43.424-19.424 27.424-51.424 65.728-4 6.272-4 11.424 0 6.848 4 11.424 12.576 17.152 46.848 50.848t45.152 33.728q6.272 0 12-4l65.728-51.424q19.424 10.272 44 18.272 6.272 61.728 13.152 88 4 13.728 17.152 13.728h106.272q6.272 0 11.424-4.288t5.728-10.016l13.152-87.424q19.424-5.728 42.848-17.728l67.424 50.848q4.576 4 11.424 4 6.272 0 12-4.576 82.272-76 82.272-91.424 0-5.152-4-10.848-6.848-9.152-24-30.848t-25.728-34.272q13.152-27.424 19.424-46.848l86.848-13.152q5.728-1.152 9.728-6.016t4-11.136zM1097.152 195.424v-80q0-9.152-85.152-17.728-6.848-15.424-17.152-29.728 29.152-64.576 29.152-78.848 0-2.272-2.272-4-69.728-40.576-70.848-40.576-4.576 0-26.272 26.848t-29.728 38.848q-11.424-1.152-17.152-1.152t-17.152 1.152q-8-12-29.728-38.848t-26.272-26.848q-1.152 0-70.848 40.576-2.272 1.728-2.272 4 0 14.272 29.152 78.848-10.272 14.272-17.152 29.728-85.152 8.576-85.152 17.728v80q0 9.152 85.152 17.728 7.424 16.576 17.152 29.728-29.152 64.576-29.152 78.848 0 2.272 2.272 4 2.272 1.152 20 11.424t33.728 19.424 17.152 9.152q4.576 0 26.272-26.56t29.728-38.56q11.424 1.152 17.152 1.152t17.152-1.152q29.152 40.576 52.576 64l3.424 1.152q2.272 0 70.848-40 2.272-1.728 2.272-4 0-14.272-29.152-78.848 9.728-13.152 17.152-29.728 85.152-8.576 85.152-17.728zM1097.152 780.576v-80q0-9.152-85.152-17.728-6.848-15.424-17.152-29.728 29.152-64.576 29.152-78.848 0-2.272-2.272-4-69.728-40.576-70.848-40.576-4.576 0-26.272 26.848t-29.728 38.848q-11.424-1.152-17.152-1.152t-17.152 1.152q-8-12-29.728-38.848t-26.272-26.848q-1.152 0-70.848 40.576-2.272 1.728-2.272 4 0 14.272 29.152 78.848-10.272 14.272-17.152 29.728-85.152 8.576-85.152 17.728v80q0 9.152 85.152 17.728 7.424 16.576 17.152 29.728-29.152 64.576-29.152 78.848 0 2.272 2.272 4 2.272 1.152 20 11.424t33.728 19.424 17.152 9.152q4.576 0 26.272-26.56t29.728-38.56q11.424 1.152 17.152 1.152t17.152-1.152q29.152 40.576 52.576 64l3.424 1.152q2.272 0 70.848-40 2.272-1.728 2.272-4 0-14.272-29.152-78.848 9.728-13.152 17.152-29.728 85.152-8.576 85.152-17.728z" />
<glyph unicode="&#xe921;" glyph-name="back_top" d="M16 448c0 80 19.2 153.6 57.6 220.8s92.8 121.6 156.8 160c67.2 38.4 140.8 57.6 220.8 57.6s153.6-19.2 220.8-57.6c67.2-38.4 121.6-92.8 160-160s57.6-140.8 57.6-220.8-19.2-153.6-57.6-220.8c-38.4-67.2-92.8-121.6-160-160s-140.8-57.6-220.8-57.6c-80 0-153.6 19.2-220.8 57.6s-121.6 92.8-160 160c-35.2 67.2-54.4 140.8-54.4 220.8zM489.6 668.8c-6.4 12.8-16 19.2-32 19.2s-25.6-6.4-32-19.2l-182.4-313.6c-9.6-12.8-9.6-25.6 0-35.2 6.4-12.8 19.2-19.2 32-19.2h364.8c12.8 0 25.6 6.4 32 19.2 3.2 6.4 3.2 12.8 3.2 19.2s-3.2 12.8-6.4 19.2l-179.2 310.4z" />
<glyph unicode="&#xe922;" glyph-name="bookmark" horiz-adv-x="736" d="M720 857.6c-6.4 9.6-16 19.2-28.8 22.4-9.6 3.2-16 6.4-25.6 6.4h-598.4c-9.6 0-16-3.2-25.6-6.4-12.8-3.2-22.4-9.6-32-22.4-6.4-9.6-9.6-22.4-9.6-35.2v-736c0-12.8 3.2-25.6 9.6-35.2s16-19.2 28.8-22.4c9.6-3.2 16-6.4 25.6-6.4 19.2 0 35.2 6.4 48 19.2l252.8 243.2 252.8-243.2c12.8-12.8 28.8-19.2 48-19.2 9.6 0 19.2 0 25.6 3.2 12.8 6.4 22.4 12.8 28.8 22.4s9.6 22.4 9.6 35.2v736c3.2 16-3.2 28.8-9.6 38.4zM531.2 611.2c-3.2-3.2-3.2-9.6-6.4-12.8-12.8-6.4-28.8-9.6-44.8-12.8s-28.8-9.6-44.8-12.8c3.2-9.6 9.6-16 12.8-22.4s9.6-16 12.8-19.2c3.2-9.6 9.6-16 12.8-22.4s9.6-16 12.8-19.2c-3.2-3.2 0-3.2 3.2-6.4 0 0 0-6.4 0-9.6s-3.2-6.4-3.2-9.6c-9.6-9.6-25.6-16-38.4-25.6-3.2 0-9.6 0-12.8 0 0 3.2-3.2 0-3.2 0v3.2c0 0-3.2 0-3.2 0s-3.2 3.2-3.2 3.2c-9.6 9.6-16 28.8-25.6 41.6-9.6 16-19.2 32-28.8 51.2-6.4-6.4-9.6-16-16-25.6s-9.6-16-16-25.6-16-35.2-32-48c-3.2 0-3.2 0-3.2-3.2 0 0-3.2 0-3.2 0-3.2 0-12.8 0-12.8 0-16 9.6-32 12.8-41.6 25.6 0 3.2-3.2 6.4-3.2 9.6s0 9.6 0 9.6c0 0 0 0 0 3.2 0 0 0 3.2 0 3.2 3.2 6.4 9.6 12.8 12.8 19.2 0 3.2 3.2 3.2 3.2 6.4 9.6 19.2 22.4 41.6 35.2 57.6-16 3.2-32 9.6-44.8 12.8-16 3.2-32 6.4-44.8 12.8-3.2 3.2-3.2 9.6-6.4 12.8-3.2 16 3.2 25.6 6.4 41.6 3.2 0 0 3.2 3.2 3.2 0 0 0 3.2 3.2 3.2 3.2 6.4 9.6 6.4 12.8 9.6 0 0 6.4 0 3.2 0 28.8-6.4 64-16 96-25.6 3.2 28.8-3.2 67.2 3.2 96 3.2 9.6 12.8 12.8 22.4 16 12.8 0 25.6 0 38.4-3.2 6.4-3.2 9.6-9.6 12.8-12.8 3.2-25.6 0-60.8 0-92.8 3.2-3.2 9.6 3.2 12.8 3.2 12.8 3.2 22.4 6.4 35.2 9.6 16 3.2 28.8 9.6 44.8 12.8 0-3.2 3.2 0 6.4 0 6.4-3.2 12.8-3.2 19.2-9.6 0 0 0-3.2 3.2-3.2 0-3.2 0-3.2 3.2-3.2 0-12.8 6.4-25.6 6.4-41.6z" />
<glyph unicode="&#xe923;" glyph-name="bookmark_o" horiz-adv-x="736" d="M720 857.6c-6.4 9.6-16 19.2-28.8 22.4-9.6 3.2-16 6.4-25.6 6.4h-598.4c-9.6 0-16-3.2-25.6-6.4-12.8-3.2-22.4-9.6-32-22.4-6.4-9.6-9.6-22.4-9.6-35.2v-736c0-12.8 3.2-25.6 9.6-35.2s16-19.2 28.8-22.4c9.6-3.2 16-6.4 25.6-6.4 19.2 0 35.2 6.4 48 19.2l252.8 243.2 252.8-243.2c12.8-12.8 28.8-19.2 48-19.2 9.6 0 19.2 0 25.6 3.2 12.8 6.4 22.4 12.8 28.8 22.4s9.6 22.4 9.6 35.2v736c3.2 16-3.2 28.8-9.6 38.4zM659.2 102.4l-243.2 233.6-51.2 48-291.2-281.6v710.4h585.6v-710.4zM208 595.2c12.8-6.4 28.8-9.6 44.8-12.8s32-9.6 48-12.8c-12.8-19.2-25.6-41.6-35.2-60.8 0 0-3.2-3.2-3.2-6.4-3.2-6.4-9.6-12.8-12.8-22.4v-3.2c0-3.2-3.2-3.2 0-3.2-3.2-3.2 0-6.4 0-9.6s3.2-6.4 3.2-9.6c9.6-12.8 25.6-16 38.4-25.6 0 0 9.6 0 12.8 0 0 3.2 3.2 0 3.2 0s0 3.2 3.2 3.2c12.8 12.8 22.4 32 32 48 3.2 9.6 9.6 16 16 25.6 3.2 9.6 9.6 19.2 16 25.6 9.6-16 19.2-35.2 28.8-51.2 9.6-12.8 16-32 25.6-41.6l3.2-3.2h3.2v-3.2h3.2c3.2 0 9.6 0 12.8 0 12.8 6.4 28.8 12.8 38.4 25.6 0 3.2 3.2 6.4 3.2 9.6s0 9.6 0 9.6c0 3.2-3.2 3.2-3.2 6.4-3.2 6.4-9.6 12.8-12.8 22.4-3.2 6.4-9.6 12.8-12.8 22.4-3.2 6.4-9.6 12.8-12.8 22.4-3.2 6.4-9.6 12.8-12.8 22.4 16 3.2 28.8 6.4 44.8 12.8 16 3.2 32 6.4 44.8 12.8 3.2 3.2 3.2 6.4 6.4 12.8 3.2 16-3.2 25.6-6.4 41.6-3.2 0-3.2 0-3.2 3.2-3.2 0-3.2 3.2-3.2 3.2-3.2 3.2-12.8 6.4-19.2 9.6-3.2 0-3.2-3.2-6.4 0-16-3.2-32-9.6-48-12.8-12.8-3.2-22.4-6.4-35.2-9.6-3.2 0-9.6-3.2-12.8-3.2 0 32 3.2 67.2 0 96-3.2 3.2-6.4 9.6-12.8 12.8-9.6 3.2-25.6 3.2-38.4 3.2-9.6 0-16-6.4-22.4-16-6.4-28.8 0-67.2-3.2-96-32 9.6-67.2 19.2-96 25.6 0-3.2-3.2 0-3.2 0-3.2-9.6-6.4-9.6-9.6-12.8l-3.2-3.2c-3.2 0 0-3.2-3.2-3.2-3.2-12.8-9.6-25.6-6.4-41.6 0-3.2 3.2-9.6 6.4-12.8z" />
<glyph unicode="&#xe924;" glyph-name="contact" horiz-adv-x="1088" d="M1027.2 694.4c-22.4 22.4-51.2 35.2-86.4 35.2h-780.8c-32 0-60.8-12.8-86.4-35.2-25.6-25.6-35.2-54.4-35.2-86.4v-406.4c0-32 12.8-60.8 35.2-86.4 22.4-22.4 51.2-35.2 86.4-35.2h236.8l128-121.6c6.4-6.4 16-9.6 25.6-9.6s19.2 3.2 25.6 9.6l128 121.6h240c32 0 60.8 12.8 86.4 35.2 22.4 22.4 35.2 51.2 35.2 86.4v406.4c0 32-12.8 60.8-38.4 86.4z" />
<glyph unicode="&#xe925;" glyph-name="contact_pm" horiz-adv-x="991" d="M820.232 898.271h-660.645c-62.761 0-132.129-66.065-132.129-132.129v-396.387c0-132.129 132.129-132.129 132.129-132.129h66.065v-264.258l264.258 264.258c0 0 267.561 0 330.323 0s132.129 69.368 132.129 132.129v396.387c0 66.065-66.065 132.129-132.129 132.129z" />
<glyph unicode="&#xe926;" glyph-name="delete_cookies" horiz-adv-x="800" d="M292.576 173.728v402.272q0 8-5.152 13.152t-13.152 5.152h-36.576q-8 0-13.152-5.152t-5.152-13.152v-402.272q0-8 5.152-13.152t13.152-5.152h36.576q8 0 13.152 5.152t5.152 13.152zM438.848 173.728v402.272q0 8-5.152 13.152t-13.152 5.152h-36.576q-8 0-13.152-5.152t-5.152-13.152v-402.272q0-8 5.152-13.152t13.152-5.152h36.576q8 0 13.152 5.152t5.152 13.152zM585.152 173.728v402.272q0 8-5.152 13.152t-13.152 5.152h-36.576q-8 0-13.152-5.152t-5.152-13.152v-402.272q0-8 5.152-13.152t13.152-5.152h36.576q8 0 13.152 5.152t5.152 13.152zM274.272 740.576h256l-27.424 66.848q-4 5.152-9.728 6.272h-181.152q-5.728-1.152-9.728-6.272zM804.576 722.272v-36.576q0-8-5.152-13.152t-13.152-5.152h-54.848v-541.728q0-47.424-26.848-82.016t-64.576-34.56h-475.424q-37.728 0-64.576 33.44t-26.848 80.864v544h-54.848q-8 0-13.152 5.152t-5.152 13.152v36.576q0 8 5.152 13.152t13.152 5.152h176.576l40 95.424q8.576 21.152 30.848 36t45.152 14.848h182.848q22.848 0 45.152-14.848t30.848-36l40-95.424h176.576q8 0 13.152-5.152t5.152-13.152z" />
<glyph unicode="&#xe927;" glyph-name="delete_cookies_o" horiz-adv-x="800" d="M292.576 539.424v-329.152q0-8-5.152-13.152t-13.152-5.152h-36.576q-8 0-13.152 5.152t-5.152 13.152v329.152q0 8 5.152 13.152t13.152 5.152h36.576q8 0 13.152-5.152t5.152-13.152zM438.848 539.424v-329.152q0-8-5.152-13.152t-13.152-5.152h-36.576q-8 0-13.152 5.152t-5.152 13.152v329.152q0 8 5.152 13.152t13.152 5.152h36.576q8 0 13.152-5.152t5.152-13.152zM585.152 539.424v-329.152q0-8-5.152-13.152t-13.152-5.152h-36.576q-8 0-13.152 5.152t-5.152 13.152v329.152q0 8 5.152 13.152t13.152 5.152h36.576q8 0 13.152-5.152t5.152-13.152zM658.272 125.728v541.728h-512v-541.728q0-12.576 4-23.136t8.288-15.424 6.016-4.864h475.424q1.728 0 6.016 4.864t8.288 15.424 4 23.136zM274.272 740.576h256l-27.424 66.848q-4 5.152-9.728 6.272h-181.152q-5.728-1.152-9.728-6.272zM804.576 722.272v-36.576q0-8-5.152-13.152t-13.152-5.152h-54.848v-541.728q0-47.424-26.848-82.016t-64.576-34.56h-475.424q-37.728 0-64.576 33.44t-26.848 80.864v544h-54.848q-8 0-13.152 5.152t-5.152 13.152v36.576q0 8 5.152 13.152t13.152 5.152h176.576l40 95.424q8.576 21.152 30.848 36t45.152 14.848h182.848q22.848 0 45.152-14.848t30.848-36l40-95.424h176.576q8 0 13.152-5.152t5.152-13.152z" />
<glyph unicode="&#xe928;" glyph-name="home" horiz-adv-x="960" d="M804.576 393.152v-274.272q0-14.848-10.848-25.728t-25.728-10.848h-219.424v219.424h-146.272v-219.424h-219.424q-14.848 0-25.728 10.848t-10.848 25.728v274.272q0 0.576 0.288 1.728t0.288 1.728l328.576 270.848 328.576-270.848q0.576-1.152 0.576-3.424zM932 432.576l-35.424-42.272q-4.576-5.152-12-6.272h-1.728q-7.424 0-12 4l-395.424 329.728-395.424-329.728q-6.848-4.576-13.728-4-7.424 1.152-12 6.272l-35.424 42.272q-4.576 5.728-4 13.44t6.272 12.288l410.848 342.272q18.272 14.848 43.424 14.848t43.424-14.848l139.424-116.576v111.424q0 8 5.152 13.152t13.152 5.152h109.728q8 0 13.152-5.152t5.152-13.152v-233.152l125.152-104q5.728-4.576 6.272-12.288t-4-13.44z" />
<glyph unicode="&#xe929;" glyph-name="logout" horiz-adv-x="960" d="M457.6 435.2c19.2 0 38.4 6.4 51.2 22.4 16 16 22.4 32 22.4 51.2v364.8c0 19.2-6.4 38.4-22.4 51.2-16 16-32 22.4-51.2 22.4s-41.6-6.4-54.4-22.4c-16-16-22.4-32-22.4-51.2v-364.8c0-19.2 6.4-38.4 22.4-51.2s32-22.4 54.4-22.4zM832 652.8c-38.4 67.2-92.8 121.6-160 160-22.4 12.8-44.8 22.4-70.4 32v-140.8c3.2 0 3.2 0 6.4-3.2 48-28.8 86.4-64 112-112 28.8-48 41.6-99.2 41.6-156.8s-12.8-108.8-41.6-156.8c-28.8-48-64-86.4-112-112-48-28.8-99.2-41.6-156.8-41.6s-108.8 12.8-156.8 41.6c-48 28.8-86.4 64-112 112-28.8 48-41.6 99.2-41.6 156.8s12.8 108.8 41.6 156.8 64 86.4 112 112c6.4 3.2 9.6 6.4 12.8 9.6v137.6c-22.4-9.6-51.2-22.4-73.6-35.2-67.2-41.6-121.6-92.8-160-160s-57.6-140.8-57.6-220.8 19.2-153.6 57.6-220.8c38.4-67.2 92.8-121.6 160-160s140.8-57.6 220.8-57.6c80 0 153.6 19.2 220.8 57.6s121.6 92.8 160 160c38.4 67.2 57.6 140.8 57.6 220.8s-22.4 153.6-60.8 220.8z" />
<glyph unicode="&#xe92a;" glyph-name="donors" horiz-adv-x="1170" d="M899.657 192c0 21.943-7.314 36.571-14.629 58.514s-7.314 36.571-21.943 51.2c-14.629 14.629-21.943 29.257-36.571 43.886-7.314 7.314-21.943 14.629-43.886 29.257-14.629 0-36.571 7.314-58.514 7.314 0 0-14.629 0-21.943-14.629-14.629-7.314-29.257-7.314-43.886-21.943-14.629-7.314-29.257-21.943-51.2-29.257s-51.2-14.629-73.143-14.629c-21.943 0-51.2 0-73.143 14.629-29.257 7.314-43.886 14.629-58.514 29.257-14.629 7.314-29.257 14.629-43.886 29.257-7.314 7.314-14.629 7.314-21.943 7.314-21.943 0-43.886 0-58.514-7.314-21.943-14.629-36.571-21.943-43.886-36.571-14.629-7.314-29.257-21.943-36.571-36.571-7.314-21.943-14.629-36.571-21.943-51.2s-7.314-36.571-14.629-58.514c0-21.943-7.314-36.571-7.314-58.514v-51.2c7.314-43.886 14.629-80.457 43.886-102.4 21.943-29.257 51.2-43.886 102.4-43.886h475.429c43.886 0 80.457 14.629 102.4 36.571 29.257 21.943 36.571 58.514 36.571 102.4v51.2c-7.314 21.943-7.314 43.886-14.629 65.829zM768 418.743c21.943 0 43.886 0 58.514-14.629 21.943-7.314 36.571-14.629 51.2-36.571v-7.314c29.257 14.629 51.2 29.257 73.143 51.2 36.571 36.571 51.2 73.143 51.2 124.343s-21.943 87.771-51.2 124.343c-36.571 36.571-73.143 51.2-124.343 51.2-21.943 0-43.886 0-58.514-14.629 21.943-43.886 36.571-87.771 36.571-138.971s-14.629-95.086-36.571-138.971zM1141.029 170.057c0 14.629 0 36.571-7.314 51.2 0 14.629-7.314 36.571-14.629 51.2s-14.629 29.257-14.629 43.886c-7.314 14.629-14.629 29.257-29.257 36.571s-21.943 14.629-36.571 21.943c-14.629 0-29.257 7.314-51.2 7.314 0 0-7.314 0-14.629-7.314s-21.943-14.629-36.571-21.943c-7.314-7.314-14.629-7.314-29.257-14.629 0-7.314 7.314-14.629 14.629-14.629 14.629-21.943 21.943-36.571 29.257-58.514s14.629-43.886 14.629-73.143c7.314-29.257 7.314-51.2 7.314-73.143v-65.829c0-21.943 0-36.571-7.314-51.2h58.514c36.571 0 65.829 7.314 87.771 29.257s36.571 51.2 36.571 87.771c-7.314 21.943-7.314 36.571-7.314 51.2zM533.943 352.914c58.514 0 102.4 21.943 146.286 58.514 36.571 36.571 58.514 87.771 58.514 146.286 0 51.2-21.943 102.4-58.514 146.286-43.886 36.571-95.086 58.514-146.286 58.514-58.514 0-102.4-21.943-146.286-58.514-36.571-36.571-58.514-87.771-58.514-146.286 0-51.2 21.943-102.4 58.514-146.286 36.571-36.571 87.771-58.514 146.286-58.514zM855.771 440.686c-14.629 7.314-29.257 14.629-51.2 14.629l-43.886-43.886c14.629 0 29.257-7.314 36.571-7.314 14.629-7.314 21.943-14.629 36.571-21.943l43.886 43.886c0 7.314-14.629 14.629-21.943 14.629zM117.029 448c7.314 0 7.314-7.314 14.629-14.629l58.514-51.2c7.314 7.314 14.629 14.629 29.257 21.943s21.943 7.314 36.571 7.314l-80.457 73.143c-65.829 73.143-102.4 146.286-102.4 204.8 0 29.257 7.314 58.514 14.629 80.457 7.314 29.257 14.629 43.886 29.257 58.514s29.257 29.257 43.886 36.571c21.943 7.314 36.571 14.629 58.514 14.629s36.571 7.314 51.2 7.314c21.943 0 43.886-7.314 65.829-14.629s43.886-21.943 65.829-36.571l29.257-29.257c29.257 7.314 51.2 14.629 80.457 14.629s51.2-7.314 73.143-14.629c7.314 7.314 21.943 14.629 29.257 21.943 21.943 14.629 43.886 29.257 65.829 36.571 29.257 14.629 51.2 21.943 73.143 21.943s36.571 0 58.514-7.314c14.629 0 36.571-7.314 51.2-14.629 21.943-7.314 36.571-21.943 43.886-36.571 14.629-14.629 21.943-29.257 29.257-58.514 0-7.314 7.314-21.943 7.314-36.571 14.629-7.314 29.257-21.943 43.886-29.257 14.629-14.629 21.943-21.943 29.257-36.571v21.943c0 80.457-21.943 146.286-73.143 197.486-51.2 43.886-117.029 73.143-197.486 73.143-21.943 0-51.2-7.314-73.143-14.629s-43.886-14.629-65.829-29.257c-14.629-14.629-36.571-29.257-51.2-43.886-14.629-7.314-29.257-21.943-43.886-36.571-14.629 14.629-29.257 29.257-43.886 36.571-14.629 14.629-36.571 29.257-51.2 43.886-21.943 14.629-43.886 21.943-73.143 29.257-21.943 7.314-43.886 14.629-73.143 14.629-80.457 0-146.286-21.943-197.486-73.143-51.2-43.886-73.143-109.714-73.143-197.486 0-21.943 7.314-51.2 14.629-73.143 7.314-29.257 21.943-51.2 29.257-65.829 14.629-21.943 21.943-36.571 36.571-58.514s29.257-36.571 36.571-43.886z" />
<glyph unicode="&#xe92b;" glyph-name="mark_alt" horiz-adv-x="960" d="M934.4 771.2l-64 64c-9.6 9.6-19.2 12.8-32 12.8s-22.4-3.2-32-12.8l-371.2-368-150.4 150.4c-9.6 9.6-19.2 12.8-32 12.8s-22.4-3.2-32-12.8l-64-64c-9.6-9.6-12.8-19.2-12.8-32s3.2-22.4 12.8-32l246.4-246.4c9.6-9.6 19.2-12.8 32-12.8s22.4 3.2 32 12.8l467.2 464c9.6 9.6 12.8 19.2 12.8 32s-3.2 22.4-12.8 32zM732.8 246.4c0-25.6-9.6-48-25.6-64-19.2-19.2-38.4-25.6-64-25.6h-476.8c-25.6 0-48 9.6-64 25.6-19.2 19.2-25.6 38.4-25.6 64v473.6c0 25.6 9.6 48 25.6 64 19.2 19.2 38.4 25.6 64 25.6h473.6c12.8 0 25.6-3.2 38.4-6.4l54.4 54.4c-25.6 19.2-57.6 28.8-89.6 28.8h-476.8c-44.8 0-83.2-16-115.2-48-35.2-32-51.2-73.6-51.2-118.4v-476.8c0-41.6 16-83.2 48-115.2s70.4-48 115.2-48h476.8c44.8 0 83.2 16 115.2 48s48 70.4 48 115.2v236.8l-73.6-73.6v-160z" />
<glyph unicode="&#xe92c;" glyph-name="mcp" d="M1012 82.272q0-30.272-21.152-51.424l-61.152-61.728q-22.272-21.152-52-21.152-30.272 0-51.424 21.152l-207.424 208q-21.728 20.576-21.728 51.424 0 30.272 24.576 54.848l-146.272 146.272-72-72q-8-8-19.424-8t-19.424 8q1.152-1.152 7.136-6.848t7.136-7.424 5.728-6.56 5.728-7.712 3.424-7.712 3.136-9.44 0.864-10.272q0-21.728-16-38.848-1.728-1.728-9.44-10.272t-10.848-11.712-10.56-9.44-12.576-8.864-12.576-5.152-14.848-2.56q-22.848 0-38.848 16l-233.152 233.152q-16 16-16 38.848 0 7.424 2.56 14.848t5.152 12.576 8.864 12.576 9.44 10.56 11.712 10.848 10.272 9.44q17.152 16 38.848 16 5.728 0 10.272-0.864t9.44-3.136 7.712-3.424 7.712-5.728 6.56-5.728 7.424-7.136 6.848-7.136q-8 8-8 19.424t8 19.424l198.848 198.848q8 8 19.424 8t19.424-8q-1.152 1.152-7.136 6.848t-7.136 7.424-5.728 6.56-5.728 7.712-3.424 7.712-3.136 9.44-0.864 10.272q0 21.728 16 38.848 1.728 1.728 9.44 10.272t10.848 11.712 10.56 9.44 12.576 8.864 12.576 5.152 14.848 2.56q22.848 0 38.848-16l233.152-233.152q16-16 16-38.848 0-7.424-2.56-14.848t-5.152-12.576-8.864-12.576-9.44-10.56-11.712-10.848-10.272-9.44q-17.152-16-38.848-16-5.728 0-10.272 0.864t-9.44 3.136-7.712 3.424-7.712 5.728-6.56 5.728-7.424 7.136-6.848 7.136q8-8 8-19.424t-8-19.424l-72-72 146.272-146.272q24.576 24.576 54.848 24.576 29.728 0 52-21.152l207.424-207.424q21.152-22.272 21.152-52z" />
<glyph unicode="&#xe92d;" glyph-name="members" horiz-adv-x="1088" d="M812.8 230.4c-3.2 22.4-9.6 41.6-16 60.8s-12.8 38.4-25.6 54.4-22.4 32-35.2 44.8c-12.8 12.8-28.8 22.4-48 32-19.2 6.4-41.6 12.8-64 12.8-3.2 0-12.8-3.2-25.6-12.8s-25.6-16-41.6-28.8c-16-9.6-35.2-19.2-60.8-28.8s-51.2-12.8-76.8-12.8c-25.6 0-51.2 3.2-76.8 12.8s-44.8 16-60.8 28.8c-16 9.6-28.8 19.2-41.6 28.8s-19.2 12.8-25.6 12.8c-22.4 0-44.8-3.2-64-12.8s-35.2-19.2-48-32c-12.8-12.8-25.6-28.8-35.2-44.8-9.6-19.2-19.2-35.2-25.6-54.4s-9.6-38.4-16-60.8c-3.2-22.4-6.4-41.6-9.6-60.8 0-19.2-3.2-38.4-3.2-57.6 6.4-48 19.2-83.2 48-112 28.8-25.6 64-38.4 112-38.4h499.2c44.8 0 83.2 12.8 112 38.4s41.6 64 41.6 108.8v0c0 19.2 0 38.4-3.2 57.6s-6.4 41.6-9.6 64zM668.8 473.6c22.4 0 44.8-3.2 64-12.8 22.4-9.6 41.6-19.2 57.6-35.2 3.2-3.2 3.2-3.2 3.2-6.4 25.6 9.6 48 22.4 67.2 41.6 35.2 35.2 54.4 80 54.4 131.2s-19.2 92.8-54.4 131.2c-35.2 35.2-80 54.4-131.2 54.4-22.4 0-44.8-3.2-64-12.8 25.6-44.8 41.6-92.8 41.6-147.2 0-51.2-12.8-102.4-38.4-144zM1065.6 208c0 16-3.2 35.2-6.4 51.2-3.2 19.2-6.4 35.2-12.8 51.2s-12.8 32-19.2 48c-9.6 16-19.2 28.8-28.8 38.4-12.8 9.6-25.6 19.2-41.6 25.6s-35.2 9.6-54.4 9.6c-3.2 0-9.6-3.2-19.2-9.6s-22.4-16-35.2-22.4c-6.4-6.4-16-9.6-28.8-12.8 3.2-6.4 6.4-12.8 12.8-16 12.8-22.4 22.4-41.6 28.8-64s12.8-44.8 19.2-73.6 6.4-51.2 9.6-73.6 3.2-44.8 3.2-70.4v0c0-22.4-3.2-41.6-9.6-57.6h60.8c38.4 0 70.4 9.6 92.8 32s35.2 54.4 35.2 92.8v0c-6.4 19.2-6.4 35.2-6.4 51.2zM422.4 400c60.8 0 112 22.4 153.6 64s64 96 64 153.6-22.4 112-64 153.6-96 64-153.6 64c-60.8 0-112-22.4-153.6-64s-64-96-64-153.6 22.4-112 64-153.6 92.8-64 153.6-64z" />
<glyph unicode="&#xe92e;" glyph-name="notification" d="M521.152-9.152q0 9.152-9.152 9.152-33.728 0-58.016 24.288t-24.288 58.016q0 9.152-9.152 9.152t-9.152-9.152q0-41.728 29.44-71.136t71.136-29.44q9.152 0 9.152 9.152zM987.424 155.424q0-29.728-21.728-51.424t-51.424-21.728h-256q0-60.576-42.848-103.424t-103.424-42.848-103.424 42.848-42.848 103.424h-256q-29.728 0-51.424 21.728t-21.728 51.424q28.576 24 52 50.272t48.576 68.288 42.56 90.56 28.576 117.728 11.136 148.576q0 86.848 66.848 161.44t175.424 90.56q-4.576 10.848-4.576 22.272 0 22.848 16 38.848t38.848 16 38.848-16 16-38.848q0-11.424-4.576-22.272 108.576-16 175.424-90.56t66.848-161.44q0-79.424 11.136-148.576t28.576-117.728 42.56-90.56 48.576-68.288 52-50.272z" />
<glyph unicode="&#xe92f;" glyph-name="pages_alt" d="M1008 505.6c-6.4 16-16 28.8-25.6 38.4l-163.2 163.2c-9.6 9.6-22.4 19.2-38.4 25.6s-32 9.6-44.8 9.6h-89.6c-3.2 6.4-9.6 12.8-16 19.2l-163.2 163.2c-9.6 9.6-22.4 19.2-38.4 25.6s-32 9.6-44.8 9.6h-332.8c-16 0-25.6-6.4-35.2-16s-16-22.4-16-35.2v-700.8c0-12.8 6.4-25.6 16-35.2s22.4-16 35.2-16h297.6v-166.4c0-12.8 6.4-25.6 16-35.2s22.4-16 35.2-16h566.4c12.8 0 25.6 6.4 35.2 16s16 22.4 16 35.2v470.4c0 12.8-3.2 28.8-9.6 44.8zM748.8 476.8v195.2c9.6-3.2 16-6.4 22.4-12.8l163.2-163.2c3.2-3.2 9.6-12.8 12.8-22.4h-198.4v3.2zM396.8 889.6c9.6-6.4 19.2-9.6 22.4-12.8l163.2-163.2c6.4-6.4 9.6-12.8 12.8-22.4h-198.4v198.4zM67.2 892.8h265.6v-214.4c0-12.8 6.4-25.6 16-35.2s22.4-16 35.2-16h217.6v-400h-534.4v665.6zM953.6 6.4h-537.6v150.4h198.4c12.8 0 25.6 6.4 35.2 16s16 22.4 16 35.2v467.2h19.2v-217.6c0-12.8 6.4-25.6 16-35.2s22.4-16 35.2-16h217.6v-400z" />
<glyph unicode="&#xe930;" glyph-name="pm2" horiz-adv-x="991" d="M836.232 898.271h-660.645c-62.761 0-132.129-66.065-132.129-132.129v-396.387c0-132.129 132.129-132.129 132.129-132.129h66.065v-264.258l264.258 264.258c0 0 267.561 0 330.323 0s132.129 69.368 132.129 132.129v396.387c0 66.065-66.065 132.129-132.129 132.129z" />
<glyph unicode="&#xe931;" glyph-name="post_target" horiz-adv-x="736" d="M73.6 83.2h585.6v438.4h-236.8c-16 0-28.8 6.4-38.4 16s-16 22.4-16 38.4v236.8h-294.4v-729.6zM438.4 595.2h214.4c-3.2 9.6-9.6 19.2-12.8 22.4l-179.2 179.2c-3.2 3.2-12.8 9.6-22.4 12.8v-214.4zM732.8 576v-512c0-16-6.4-28.8-16-38.4s-22.4-16-38.4-16h-624c-16 0-28.8 6.4-38.4 16s-16 22.4-16 38.4v768c0 16 6.4 28.8 16 38.4s22.4 16 38.4 16h364.8c16 0 32-3.2 51.2-12.8s32-16 44.8-28.8l179.2-179.2c9.6-9.6 19.2-25.6 28.8-44.8 3.2-12.8 9.6-28.8 9.6-44.8v0z" />
<glyph unicode="&#xe932;" glyph-name="print" horiz-adv-x="960" d="M219.424 82.272h512v146.272h-512v-146.272zM219.424 448h512v219.424h-91.424q-22.848 0-38.848 16t-16 38.848v91.424h-365.728v-365.728zM877.728 411.424q0 14.848-10.848 25.728t-25.728 10.848-25.728-10.848-10.848-25.728 10.848-25.728 25.728-10.848 25.728 10.848 10.848 25.728zM950.848 411.424v-237.728q0-7.424-5.44-12.864t-12.864-5.44h-128v-91.424q0-22.848-16-38.848t-38.848-16h-548.576q-22.848 0-38.848 16t-16 38.848v91.424h-128q-7.424 0-12.864 5.44t-5.44 12.864v237.728q0 45.152 32.288 77.44t77.44 32.288h36.576v310.848q0 22.848 16 38.848t38.848 16h384q22.848 0 50.272-11.424t43.424-27.424l86.848-86.848q16-16 27.424-43.424t11.424-50.272v-146.272h36.576q45.152 0 77.44-32.288t32.288-77.44z" />
<glyph unicode="&#xe933;" glyph-name="profile" horiz-adv-x="800" d="M804.576 157.152q0-68.576-41.728-108.288t-110.848-39.712h-499.424q-69.152 0-110.848 39.712t-41.728 108.288q0 30.272 2.016 59.136t8 62.272 15.136 62.016 24.576 55.712 35.424 46.272 48.864 30.56 63.712 11.424q5.152 0 24-12.288t42.56-27.424 61.728-27.424 76.288-12.288 76.288 12.288 61.728 27.424 42.56 27.424 24 12.288q34.848 0 63.712-11.424t48.864-30.56 35.424-46.272 24.576-55.712 15.136-62.016 8-62.272 2.016-59.136zM621.728 667.424q0-90.848-64.288-155.136t-155.136-64.288-155.136 64.288-64.288 155.136 64.288 155.136 155.136 64.288 155.136-64.288 64.288-155.136z" />
<glyph unicode="&#xe934;" glyph-name="rate_bad" horiz-adv-x="960" d="M146.272 630.848q0-14.848-10.848-25.728t-25.728-10.848q-15.424 0-26.016 10.848t-10.56 25.728q0 15.424 10.56 26.016t26.016 10.56q14.848 0 25.728-10.56t10.848-26.016zM237.728 338.272v365.728q0 14.848-10.848 25.728t-25.728 10.848h-164.576q-14.848 0-25.728-10.848t-10.848-25.728v-365.728q0-14.848 10.848-25.728t25.728-10.848h164.576q14.848 0 25.728 10.848t10.848 25.728zM882.848 423.424q31.424-34.848 31.424-85.152-0.576-44.576-32.864-77.152t-76.864-32.576h-158.272q2.272-8 4.576-13.728t6.272-12.576 5.728-10.272q10.272-21.152 15.424-32.576t10.848-33.44 5.728-43.712q0-13.728-0.288-22.272t-2.848-25.728-6.848-28.576-13.728-25.728-22.848-23.136-34.272-14.848-47.136-6.016q-14.848 0-25.728 10.848-11.424 11.424-19.424 28.576t-11.136 29.728-7.136 34.848q-5.152 24-7.712 34.56t-10.016 27.712-17.728 27.424q-18.848 18.848-57.728 68.576-28 36.576-57.728 69.152t-43.424 33.728q-14.272 1.152-24.576 11.712t-10.272 24.864v366.272q0 14.848 10.848 25.44t25.728 11.136q20 0.576 90.272 25.152 44 14.848 68.864 22.56t69.44 16.576 82.272 8.864h73.728q76-1.152 112.576-44.576 33.152-39.424 28-103.424 22.272-21.152 30.848-53.728 9.728-34.848 0-66.848 26.272-34.848 24.576-78.272 0-18.272-8.576-43.424z" />
<glyph unicode="&#xe935;" glyph-name="rate_bad_o" d="M146.272 704q0 14.848-10.848 25.728t-25.728 10.848-25.728-10.848-10.848-25.728 10.848-25.728 25.728-10.848 25.728 10.848 10.848 25.728zM804.576 374.848q0 20-12.288 46.272t-30.56 26.848q8.576 9.728 14.272 27.136t5.728 31.712q0 39.424-30.272 68 10.272 18.272 10.272 39.424t-10.016 42.016-27.136 30.016q2.848 17.152 2.848 32 0 48.576-28 72t-77.728 23.424h-73.152q-74.848 0-195.424-41.728-2.848-1.152-16.576-6.016t-20.288-7.136-20-6.56-21.728-6.272-18.848-3.712-18.016-1.728h-18.272v-365.728h18.272q9.152 0 20.288-5.152t22.848-15.424 22.016-20.288 22.848-25.152 19.712-24.288 18.016-23.424 13.152-17.152q31.424-38.848 44-52 23.424-24.576 34.016-62.56t17.44-71.712 21.728-48.576q54.848 0 73.152 26.848t18.272 82.848q0 33.728-27.424 91.712t-27.424 91.136h201.152q28.576 0 50.848 22.016t22.272 51.136zM877.728 374.272q0-58.848-43.424-102.272t-102.848-43.424h-100.576q27.424-56.576 27.424-109.728 0-67.424-20-106.272-20-39.424-58.272-58.016t-86.272-18.56q-29.152 0-51.424 21.152-19.424 18.848-30.848 46.848t-14.56 51.712-10.016 48.288-17.728 36.576q-27.424 28.576-61.152 72.576-57.728 74.848-78.272 88.576h-156.576q-30.272 0-51.712 21.44t-21.44 51.712v365.728q0 30.272 21.44 51.712t51.712 21.44h164.576q12.576 0 78.848 22.848 73.152 25.152 127.424 37.728t114.272 12.576h64q80 0 129.44-45.152t48.864-123.424v-2.848q34.272-44 34.272-101.728 0-12.576-1.728-24.576 21.728-38.272 21.728-82.272 0-20.576-5.152-39.424 28-42.272 28-93.152z" />
<glyph unicode="&#xe936;" glyph-name="rate_good" horiz-adv-x="960" d="M146.272 192q0 14.848-10.848 25.728t-25.728 10.848q-15.424 0-26.016-10.848t-10.56-25.728q0-15.424 10.56-26.016t26.016-10.56q14.848 0 25.728 10.56t10.848 26.016zM237.728 484.576v-365.728q0-14.848-10.848-25.728t-25.728-10.848h-164.576q-14.848 0-25.728 10.848t-10.848 25.728v365.728q0 14.848 10.848 25.728t25.728 10.848h164.576q14.848 0 25.728-10.848t10.848-25.728zM914.272 484.576q0-49.152-31.424-85.152 8.576-25.152 8.576-43.424 1.728-43.424-24.576-78.272 9.728-32 0-66.848-8.576-32.576-30.848-53.728 5.152-64-28-103.424-36.576-43.424-112.576-44.576h-73.728q-37.728 0-82.272 8.864t-69.44 16.576-68.864 22.56q-70.272 24.576-90.272 25.152-14.848 0.576-25.728 11.136t-10.848 25.44v366.272q0 14.272 10.272 24.864t24.576 11.712q13.728 1.152 43.424 33.728t57.728 69.152q38.848 49.728 57.728 68.576 10.272 10.272 17.728 27.424t10.016 27.712 7.712 34.56q4 22.272 7.136 34.848t11.136 29.728 19.424 28.576q10.848 10.848 25.728 10.848 26.272 0 47.136-6.016t34.272-14.848 22.848-23.136 13.728-25.728 6.848-28.576 2.848-25.728 0.288-22.272q0-21.728-5.44-43.424t-10.848-34.272-15.712-32q-1.728-3.424-5.728-10.272t-6.272-12.576-4.576-13.728h158.272q44.576 0 77.152-32.576t32.576-77.152z" />
<glyph unicode="&#xe937;" glyph-name="rate_good_o" d="M146.272 192q0 14.848-10.848 25.728t-25.728 10.848-25.728-10.848-10.848-25.728 10.848-25.728 25.728-10.848 25.728 10.848 10.848 25.728zM804.576 521.152q0 29.152-22.272 51.136t-50.848 22.016h-201.152q0 33.152 27.424 91.136t27.424 91.712q0 56-18.272 82.848t-73.152 26.848q-14.848-14.848-21.728-48.576t-17.44-71.712-34.016-62.56q-12.576-13.152-44-52-2.272-2.848-13.152-17.152t-18.016-23.424-19.712-24.288-22.848-25.152-22.016-20.288-22.848-15.424-20.288-5.152h-18.272v-365.728h18.272q7.424 0 18.016-1.728t18.848-3.712 21.728-6.272 20-6.56 20.288-7.136 16.576-6.016q120.576-41.728 195.424-41.728h69.152q109.728 0 109.728 95.424 0 14.848-2.848 32 17.152 9.152 27.136 30.016t10.016 42.016-10.272 39.424q30.272 28.576 30.272 68 0 14.272-5.728 31.712t-14.272 27.136q18.272 0.576 30.56 26.848t12.288 46.272zM877.728 521.728q0-50.848-28-93.152 5.152-18.848 5.152-39.424 0-44-21.728-82.272 1.728-12 1.728-24.576 0-57.728-34.272-101.728 0.576-79.424-48.576-125.44t-129.728-46.016h-73.728q-54.848 0-108.288 12.864t-123.712 37.44q-66.272 22.848-78.848 22.848h-164.576q-30.272 0-51.712 21.44t-21.44 51.712v365.728q0 30.272 21.44 51.712t51.712 21.44h156.576q20.576 13.728 78.272 88.576 33.152 42.848 61.152 73.152 13.728 14.272 20.288 48.864t17.44 72.288 35.424 61.728q22.272 21.152 51.424 21.152 48 0 86.272-18.56t58.272-58.016 20-106.272q0-53.152-27.424-109.728h100.576q59.424 0 102.848-43.424t43.424-102.272z" />
<glyph unicode="&#xe938;" glyph-name="register" horiz-adv-x="1056" d="M867.2 432c0 6.4-3.2 9.6-6.4 12.8s-6.4 6.4-12.8 6.4h-64l-73.6-73.6h140.8c6.4 0 9.6 3.2 12.8 6.4s6.4 6.4 6.4 12.8l-3.2 35.2zM848 300.8h-211.2l-73.6-73.6h281.6c9.6 0 12.8 0 16 6.4 3.2 3.2 6.4 6.4 6.4 12.8v35.2c0 6.4-3.2 9.6-6.4 12.8s-6.4 6.4-12.8 6.4v0zM355.2 812.8h185.6l73.6 73.6h-275.2c-19.2 0-32-6.4-41.6-16s-16-25.6-16-41.6v-96l73.6-70.4v150.4zM1004.8 627.2c-3.2 9.6-9.6 19.2-12.8 25.6l-54.4-54.4v-3.2h-3.2l-73.6-73.6h83.2v-441.6h-524.8l-9.6-9.6c-9.6-6.4-22.4-12.8-38.4-12.8s-28.8 6.4-38.4 16l-51.2 51.2v-60.8c0-16 6.4-28.8 16-38.4s22.4-16 38.4-16h624c16 0 28.8 6.4 38.4 16s16 22.4 16 38.4v508.8c0 16-3.2 35.2-9.6 54.4v0zM368 204.8c16 0 28.8 6.4 38.4 16l492.8 496c9.6 9.6 16 22.4 16 38.4 0 12.8-6.4 25.6-19.2 38.4l-76.8 76.8c-9.6 9.6-22.4 16-38.4 16s-28.8-6.4-38.4-16l-374.4-380.8-172.8 172.8c-9.6 9.6-22.4 16-38.4 16s-28.8-6.4-38.4-16l-76.8-76.8c-6.4-9.6-12.8-22.4-12.8-38.4s6.4-28.8 16-38.4l284.8-284.8c9.6-12.8 22.4-19.2 38.4-19.2z" />
<glyph unicode="&#xe939;" glyph-name="team_alt" horiz-adv-x="991" d="M884.232 781.626c-234.529-33.032-280.774 26.426-386.477 118.916-105.703-92.49-151.948-151.948-386.477-118.916-128.826-624.31 386.477-799.381 386.477-799.381s512 175.071 386.477 799.381zM623.277 272.929l-125.523 66.065-125.523-66.065 23.123 142.039-102.4 99.097 142.039 19.819 62.761 125.523 62.761-128.826 142.039-19.819-102.4-99.097 23.123-138.735z" />
<glyph unicode="&#xe93a;" glyph-name="search" horiz-adv-x="960" d="M659.2 483.2c0 70.4-25.6 131.2-73.6 182.4-51.2 51.2-108.8 73.6-182.4 73.6s-131.2-22.4-182.4-73.6-73.6-108.8-73.6-182.4 25.6-131.2 73.6-182.4 108.8-73.6 182.4-73.6 131.2 25.6 182.4 73.6c48 54.4 73.6 112 73.6 182.4zM950.4 9.6c0-19.2-6.4-38.4-22.4-51.2-16-16-32-22.4-51.2-22.4s-38.4 6.4-51.2 22.4l-195.2 195.2c-67.2-48-144-70.4-227.2-70.4-54.4 0-105.6 9.6-156.8 32s-92.8 51.2-128 86.4-64 80-86.4 128c-22.4 51.2-32 102.4-32 156.8s9.6 105.6 32 156.8c22.4 51.2 51.2 92.8 86.4 128s80 64 128 86.4 102.4 32 156.8 32 105.6-9.6 156.8-32 92.8-51.2 128-86.4c35.2-35.2 64-80 86.4-128 22.4-51.2 32-102.4 32-156.8 0-83.2-22.4-160-70.4-227.2l195.2-195.2c12.8-16 19.2-35.2 19.2-54.4v0z" />
<glyph unicode="&#xe93b;" glyph-name="sendemail" d="M1024 553.6v-454.4c0-25.6-9.6-48-25.6-64s-38.4-25.6-64-25.6h-841.6c-25.6 0-48 9.6-64 25.6-19.2 19.2-25.6 38.4-25.6 64v454.4c16-19.2 35.2-35.2 57.6-51.2 137.6-92.8 233.6-160 284.8-198.4 22.4-16 38.4-28.8 54.4-38.4 12.8-9.6 32-19.2 54.4-28.8s44.8-12.8 64-12.8v0c19.2 0 41.6 3.2 64 12.8s41.6 19.2 54.4 28.8 32 22.4 54.4 38.4c64 48 160 112 284.8 198.4 12.8 16 32 32 48 51.2v0zM1024 723.2c0-28.8-9.6-57.6-28.8-86.4s-41.6-51.2-70.4-70.4c-144-99.2-233.6-160-268.8-185.6-3.2-3.2-12.8-9.6-25.6-16-12.8-9.6-22.4-16-32-22.4s-19.2-12.8-28.8-19.2c-12.8-6.4-22.4-12.8-32-16s-19.2-6.4-28.8-6.4v0c-9.6 0-19.2 3.2-28.8 6.4s-22.4 9.6-32 16c-12.8 6.4-22.4 12.8-28.8 19.2-9.6 6.4-19.2 12.8-32 22.4s-19.2 16-25.6 16c-35.2 25.6-83.2 57.6-150.4 105.6-64 44.8-105.6 73.6-118.4 80-22.4 16-44.8 38.4-67.2 67.2-16 25.6-25.6 51.2-25.6 76.8 0 28.8 6.4 54.4 22.4 73.6s38.4 28.8 67.2 28.8h841.6c25.6 0 44.8-9.6 64-25.6 19.2-19.2 28.8-38.4 28.8-64v0z" />
<glyph unicode="&#xe93c;" glyph-name="sendemail_o" d="M950.848 100.576v438.848q-18.272-20.576-39.424-37.728-153.152-117.728-243.424-193.152-29.152-24.576-47.424-38.272t-49.44-27.712-58.56-14.016h-1.152q-27.424 0-58.56 14.016t-49.44 27.712-47.424 38.272q-90.272 75.424-243.424 193.152-21.152 17.152-39.424 37.728v-438.848q0-7.424 5.44-12.864t12.864-5.44h841.152q7.424 0 12.864 5.44t5.44 12.864zM950.848 701.152v14.016t-0.288 7.424-1.728 7.136-3.136 5.152-5.152 4.288-8 1.44h-841.152q-7.424 0-12.864-5.44t-5.44-12.864q0-96 84-162.272 110.272-86.848 229.152-181.152 3.424-2.848 20-16.864t26.272-21.44 25.44-18.016 28.864-15.712 24.576-5.152h1.152q11.424 0 24.576 5.152t28.864 15.712 25.44 18.016 26.272 21.44 20 16.864q118.848 94.272 229.152 181.152 30.848 24.576 57.44 66.016t26.56 75.136zM1024 722.272v-621.728q0-37.728-26.848-64.576t-64.576-26.848h-841.152q-37.728 0-64.576 26.848t-26.848 64.576v621.728q0 37.728 26.848 64.576t64.576 26.848h841.152q37.728 0 64.576-26.848t26.848-64.576z" />
<glyph unicode="&#xe93d;" glyph-name="subscribe" horiz-adv-x="960" d="M822.4 675.2l-60.8 60.8c-9.6 9.6-19.2 12.8-28.8 12.8s-22.4-3.2-32-12.8l-291.2-291.2-128 131.2c-9.6 9.6-19.2 12.8-28.8 12.8-12.8 0-22.4-3.2-28.8-12.8l-64-60.8c-9.6-9.6-12.8-19.2-12.8-28.8 0-12.8 3.2-22.4 12.8-28.8l220.8-220.8c9.6-9.6 19.2-12.8 28.8-12.8 12.8 0 22.4 3.2 28.8 12.8l380.8 380.8c9.6 9.6 12.8 19.2 12.8 28.8 3.2 12.8-3.2 22.4-9.6 28.8zM790.4 444.8c-3.2 3.2-3.2 3.2-6.4 3.2s-9.6-3.2-12.8-6.4l-35.2-35.2c-3.2-3.2-6.4-6.4-6.4-12.8v-144c0-25.6-6.4-44.8-25.6-64-16-16-38.4-25.6-64-25.6h-476.8c-25.6 0-44.8 6.4-64 25.6-16 16-25.6 38.4-25.6 64v476.8c0 25.6 9.6 44.8 25.6 64 16 16 38.4 25.6 64 25.6h473.6c9.6 0 16 0 25.6-3.2 3.2 0 6.4 0 6.4 0 3.2 0 9.6 3.2 12.8 6.4l28.8 28.8c6.4 3.2 6.4 9.6 6.4 16s-3.2 9.6-9.6 12.8c-22.4 9.6-41.6 12.8-67.2 12.8h-476.8c-44.8 0-83.2-16-115.2-48s-48-70.4-48-115.2v-476.8c0-44.8 16-83.2 48-115.2s70.4-48 115.2-48h476.8c44.8 0 83.2 16 115.2 48s48 70.4 48 115.2v182.4c0 6.4-3.2 12.8-12.8 12.8z" />
<glyph unicode="&#xe93e;" glyph-name="team" horiz-adv-x="1360" d="M934.4 473.6c22.4 0 44.8-3.2 64-12.8 22.4-9.6 41.6-19.2 57.6-35.2 3.2-3.2 3.2-3.2 3.2-6.4 25.6 9.6 48 22.4 67.2 41.6 35.2 35.2 54.4 80 54.4 131.2s-19.2 92.8-54.4 131.2c-35.2 35.2-80 54.4-131.2 54.4-22.4 0-44.8-3.2-64-12.8 25.6-44.8 41.6-92.8 41.6-147.2 0-51.2-12.8-102.4-38.4-144zM1331.2 208c0 16-3.2 35.2-6.4 51.2-3.2 19.2-6.4 35.2-12.8 51.2s-12.8 32-19.2 48c-9.6 16-19.2 28.8-28.8 38.4-12.8 9.6-25.6 19.2-41.6 25.6s-35.2 9.6-54.4 9.6c-3.2 0-9.6-3.2-19.2-9.6s-22.4-16-35.2-22.4c-6.4-6.4-16-9.6-28.8-12.8 3.2-6.4 6.4-12.8 12.8-16 12.8-22.4 22.4-41.6 28.8-64s12.8-44.8 19.2-73.6c6.4-28.8 6.4-51.2 9.6-73.6s3.2-44.8 3.2-70.4v0c0-22.4-3.2-41.6-9.6-57.6h60.8c38.4 0 70.4 9.6 92.8 32s35.2 54.4 35.2 92.8v0c-6.4 19.2-6.4 35.2-6.4 51.2v0zM1078.4 230.4c-3.2 22.4-9.6 41.6-16 60.8s-12.8 38.4-25.6 54.4c-12.8 16-22.4 32-35.2 44.8s-28.8 22.4-48 32c-19.2 6.4-41.6 12.8-64 12.8-3.2 0-12.8-3.2-25.6-12.8s-25.6-16-41.6-28.8c-16-9.6-35.2-19.2-60.8-28.8s-51.2-12.8-76.8-12.8-51.2 3.2-76.8 12.8c-25.6 9.6-44.8 16-60.8 28.8-16 9.6-28.8 19.2-41.6 28.8s-19.2 12.8-25.6 12.8c-22.4 0-44.8-3.2-64-12.8s-35.2-19.2-48-32c-12.8-12.8-25.6-28.8-35.2-44.8-9.6-19.2-19.2-35.2-25.6-54.4s-9.6-38.4-16-60.8c-3.2-22.4-6.4-41.6-9.6-60.8 0-19.2-3.2-38.4-3.2-57.6 6.4-48 19.2-83.2 48-112 28.8-25.6 64-38.4 112-38.4h499.2c44.8 0 83.2 12.8 112 38.4s41.6 64 41.6 108.8v0c0 19.2 0 38.4-3.2 57.6s-6.4 41.6-9.6 64v0zM688 400c60.8 0 112 22.4 153.6 64s64 96 64 153.6c0 57.6-22.4 112-64 153.6s-96 64-153.6 64c-60.8 0-112-22.4-153.6-64s-64-96-64-153.6c0-57.6 22.4-112 64-153.6s92.8-64 153.6-64zM409.6 620.8c0 54.4 16 102.4 41.6 147.2-19.2 9.6-41.6 12.8-64 12.8-51.2 0-96-19.2-131.2-54.4-38.4-38.4-54.4-80-54.4-131.2s19.2-96 54.4-131.2c19.2-19.2 41.6-32 67.2-41.6 0 3.2 0 3.2 3.2 6.4 16 16 35.2 25.6 57.6 35.2 19.2 9.6 41.6 12.8 64 12.8-28.8 41.6-38.4 92.8-38.4 144zM48 211.2c0-16 0-32-6.4-51.2v0c0-38.4 12.8-70.4 35.2-92.8s54.4-32 92.8-32h64c-6.4 16-9.6 35.2-9.6 57.6v0c0 25.6 0 48 3.2 70.4s3.2 44.8 9.6 73.6c6.4 28.8 12.8 51.2 19.2 73.6s16 41.6 28.8 64c6.4 3.2 6.4 9.6 12.8 16-12.8 3.2-22.4 6.4-28.8 12.8-12.8 6.4-25.6 16-35.2 22.4s-16 9.6-19.2 9.6c-19.2 0-38.4-3.2-54.4-9.6s-28.8-16-41.6-25.6c-9.6-9.6-19.2-22.4-28.8-38.4-6.4-16-12.8-32-19.2-48s-9.6-32-12.8-51.2c-6.4-16-9.6-35.2-9.6-51.2v0z" />
<glyph unicode="&#xe93f;" glyph-name="bump_alt" horiz-adv-x="864" d="M588.8 432h-300.8c-3.2 0-6.4 0-9.6-3.2s-3.2-6.4-3.2-9.6v-25.6c0-3.2 0-6.4 3.2-9.6s6.4-3.2 9.6-3.2h300.8c3.2 0 6.4 0 9.6 3.2s3.2 6.4 3.2 9.6v22.4c0 3.2 0 6.4-3.2 9.6 0 3.2-3.2 6.4-9.6 6.4zM588.8 320h-300.8c-3.2 0-6.4 0-9.6-3.2s-3.2-6.4-3.2-9.6v-25.6c0-3.2 0-6.4 3.2-9.6s6.4-3.2 9.6-3.2h300.8c3.2 0 6.4 0 9.6 3.2s3.2 6.4 3.2 9.6v25.6c0 3.2 0 6.4-3.2 9.6 0 3.2-3.2 3.2-9.6 3.2zM713.6 182.4v496c0 22.4-9.6 41.6-25.6 57.6s-35.2 25.6-57.6 25.6h-387.2c-22.4 0-41.6-9.6-57.6-25.6s-22.4-35.2-22.4-57.6v-496c0-22.4 9.6-41.6 25.6-57.6s35.2-25.6 57.6-25.6h387.2c22.4 0 41.6 9.6 57.6 25.6s22.4 35.2 22.4 57.6zM646.4 182.4c0-6.4 0-9.6-3.2-12.8s-6.4-3.2-12.8-3.2h-387.2c-6.4 0-9.6 0-12.8 3.2s-3.2 6.4-3.2 12.8v496c0 6.4 0 9.6 3.2 12.8s6.4 3.2 12.8 3.2h387.2c6.4 0 9.6 0 12.8-3.2s3.2-6.4 3.2-12.8v-496zM588.8 547.2h-300.8c-3.2 0-6.4 0-9.6-3.2s-3.2-6.4-3.2-9.6v-25.6c0-3.2 0-6.4 3.2-9.6s6.4-3.2 9.6-3.2h300.8c3.2 0 6.4 0 9.6 3.2s3.2 6.4 3.2 9.6v22.4c0 3.2 0 6.4-3.2 9.6 0 3.2-3.2 6.4-9.6 6.4zM777.6 147.2v-112h-112v-70.4h128c12.8 0 25.6 6.4 35.2 16s16 22.4 16 35.2v128h-67.2zM777.6 720h67.2v124.8c0 12.8-3.2 25.6-12.8 35.2s-22.4 12.8-35.2 12.8h-124.8v-67.2h108.8v-105.6zM99.2 147.2h-64v-128c0-12.8 3.2-25.6 12.8-35.2 9.6-12.8 22.4-16 35.2-16h124.8v67.2h-108.8v112zM99.2 825.6h108.8v64h-124.8c-12.8 0-25.6-3.2-35.2-12.8s-12.8-22.4-12.8-35.2v-124.8h67.2v108.8z" />
<glyph unicode="&#xe940;" glyph-name="topic_deleted" d="M934.4 844.8c-35.2 35.2-76.8 51.2-124.8 51.2h-595.2c-48 0-89.6-16-124.8-51.2s-54.4-76.8-54.4-128v-595.2c0-48 16-89.6 51.2-124.8s76.8-51.2 124.8-51.2h595.2c48 0 89.6 16 124.8 51.2s51.2 76.8 51.2 124.8v595.2c6.4 51.2-12.8 92.8-48 128zM752 291.2c6.4-9.6 12.8-19.2 12.8-28.8s-3.2-22.4-12.8-28.8l-57.6-57.6c-9.6-9.6-19.2-12.8-28.8-12.8-12.8 0-22.4 3.2-28.8 12.8l-124.8 124.8-124.8-124.8c-9.6-9.6-19.2-12.8-28.8-12.8s-22.4 3.2-28.8 12.8l-57.6 57.6c-9.6 6.4-12.8 19.2-12.8 28.8s3.2 22.4 12.8 28.8l124.8 124.8-131.2 128c-9.6 9.6-12.8 19.2-12.8 28.8 0 12.8 3.2 22.4 12.8 28.8l57.6 57.6c9.6 9.6 19.2 12.8 28.8 12.8s22.4-3.2 28.8-12.8l124.8-124.8 124.8 124.8c12.8 9.6 22.4 12.8 32 12.8 12.8 0 22.4-3.2 28.8-12.8l57.6-57.6c6.4-9.6 12.8-19.2 12.8-28.8 0-12.8-3.2-22.4-12.8-28.8l-124.8-128 128-124.8z" />
<glyph unicode="&#xe941;" glyph-name="topic_poll" d="M192 339.2h-166.4c-9.6 0-16-3.2-19.2-6.4-3.2-6.4-6.4-12.8-6.4-19.2v-275.2c0-9.6 3.2-16 6.4-19.2 6.4-6.4 12.8-6.4 19.2-6.4h166.4c6.4 0 16 3.2 19.2 6.4 6.4 6.4 6.4 12.8 6.4 19.2v275.2c0 9.6-3.2 16-6.4 19.2-6.4 6.4-12.8 6.4-19.2 6.4zM864 550.4c-6.4 6.4-12.8 6.4-19.2 6.4h-163.2c-9.6 0-16-3.2-19.2-6.4-6.4-6.4-6.4-12.8-6.4-19.2v-492.8c0-9.6 3.2-16 6.4-19.2 6.4-6.4 12.8-6.4 19.2-6.4h163.2c9.6 0 16 3.2 19.2 6.4 6.4 6.4 6.4 12.8 6.4 19.2v492.8c0 9.6-3.2 16-6.4 19.2zM508.8 886.4h-163.2c-9.6 0-16-3.2-19.2-6.4-6.4-6.4-9.6-12.8-9.6-19.2v-822.4c0-9.6 3.2-16 6.4-19.2 6.4-6.4 12.8-6.4 19.2-6.4h163.2c9.6 0 16 3.2 19.2 6.4 6.4 6.4 6.4 12.8 6.4 19.2v822.4c0 6.4-3.2 16-6.4 19.2 0 6.4-6.4 6.4-16 6.4z" />
<glyph unicode="&#xe942;" glyph-name="topic_reported" d="M1014.4 860.8c-6.4 9.6-16 19.2-25.6 25.6-12.8 6.4-25.6 9.6-38.4 9.6h-876.8c-12.8 0-25.6-3.2-35.2-9.6-12.8-6.4-22.4-16-28.8-25.6-12.8-25.6-12.8-48 0-73.6l438.4-803.2c6.4-12.8 16-22.4 25.6-28.8 12.8-6.4 22.4-9.6 38.4-9.6s25.6 3.2 38.4 9.6c12.8 6.4 19.2 16 25.6 28.8l438.4 803.2c12.8 25.6 12.8 48 0 73.6zM585.6 268.8c0-6.4-3.2-12.8-6.4-16s-9.6-6.4-16-6.4h-92.8c-6.4 0-12.8 3.2-16 6.4s-6.4 9.6-6.4 16v80c0 6.4 3.2 12.8 6.4 16s9.6 6.4 16 6.4h92.8c6.4 0 12.8-3.2 16-6.4 3.2-6.4 6.4-9.6 6.4-16v-80zM585.6 451.2c0-6.4-3.2-12.8-6.4-16s-9.6-6.4-16-6.4h-92.8c-6.4 0-12.8 3.2-16 6.4s-6.4 9.6-6.4 16l-12.8 278.4c0 6.4 3.2 12.8 6.4 16s9.6 6.4 16 6.4h115.2c6.4 0 12.8-3.2 16-6.4 6.4-3.2 6.4-9.6 6.4-16l-9.6-278.4z" />
<glyph unicode="&#xe943;" glyph-name="ucp" d="M720 332.8c-3.2 22.4-6.4 41.6-12.8 57.6-6.4 19.2-12.8 35.2-22.4 51.2s-19.2 28.8-32 41.6c-12.8 12.8-28.8 22.4-44.8 28.8s-35.2 9.6-57.6 9.6c-3.2 0-9.6-6.4-22.4-12.8-9.6-6.4-22.4-16-38.4-25.6s-35.2-19.2-57.6-25.6c-22.4-9.6-48-12.8-70.4-12.8s-48 6.4-70.4 12.8c-25.6 9.6-41.6 16-57.6 25.6-12.8 9.6-25.6 19.2-38.4 25.6-12.8 9.6-19.2 12.8-22.4 12.8-19.2 0-38.4-3.2-57.6-9.6s-32-16-48-28.8c-12.8-9.6-22.4-25.6-32-41.6s-16-35.2-22.4-51.2c-3.2-19.2-9.6-38.4-12.8-57.6-3.2-22.4-6.4-41.6-6.4-57.6-3.2-19.2-3.2-35.2-3.2-54.4 0-41.6 12.8-73.6 38.4-99.2 25.6-22.4 60.8-35.2 102.4-35.2h457.6c41.6 0 76.8 9.6 102.4 35.2s38.4 57.6 38.4 99.2c0 19.2-3.2 38.4-3.2 54.4 0 19.2-3.2 38.4-6.4 57.6zM361.6 489.6c54.4 0 102.4 19.2 140.8 57.6s57.6 86.4 57.6 140.8c0 57.6-19.2 105.6-60.8 144-38.4 38.4-86.4 57.6-140.8 57.6s-102.4-19.2-140.8-60.8c-38.4-38.4-57.6-86.4-57.6-140.8s19.2-102.4 57.6-140.8c38.4-38.4 89.6-57.6 144-57.6zM787.2 352c0-6.4 3.2-12.8 3.2-19.2 3.2-16 6.4-32 6.4-48h73.6c6.4 0 9.6 0 12.8 3.2s3.2 6.4 3.2 12.8v35.2c0 6.4 0 9.6-3.2 12.8s-6.4 3.2-12.8 3.2h-83.2zM889.6 435.2v35.2h-3.2c0 6.4 0 9.6-3.2 12.8s-6.4 3.2-12.8 3.2h-140.8c6.4-9.6 12.8-16 19.2-25.6 6.4-12.8 12.8-25.6 19.2-41.6h105.6c6.4 0 9.6 0 12.8 3.2s3.2 6.4 3.2 12.8zM1011.2 649.6c-6.4 16-16 28.8-25.6 38.4l-163.2 163.2c-9.6 12.8-22.4 22.4-41.6 28.8s-32 9.6-44.8 9.6h-201.6c6.4-3.2 9.6-9.6 16-16 16-16 28.8-35.2 41.6-51.2h92.8v-217.6c0-12.8 6.4-25.6 16-35.2s22.4-16 35.2-16h217.6v-403.2h-163.2c-6.4-25.6-19.2-44.8-35.2-60.8-3.2-3.2-3.2-3.2-6.4-6.4h220.8c12.8 0 25.6 6.4 35.2 16s16 22.4 16 35.2v470.4c0 12.8-3.2 28.8-9.6 44.8zM752 620.8v198.4c9.6-3.2 16-6.4 22.4-12.8l163.2-163.2c3.2-3.2 9.6-12.8 12.8-22.4h-198.4z" />
<glyph unicode="&#xe944;" glyph-name="unsubscribe" horiz-adv-x="960" d="M668.8 649.6c0 12.8-3.2 22.4-12.8 28.8l-60.8 60.8c-9.6 9.6-19.2 12.8-28.8 12.8s-22.4-6.4-32-12.8l-128-131.2-131.2 131.2c-6.4 6.4-19.2 12.8-28.8 12.8-12.8 0-22.4-6.4-32-12.8l-57.6-60.8c-9.6-9.6-12.8-19.2-12.8-28.8s3.2-22.4 12.8-28.8l131.2-131.2-131.2-131.2c-9.6-9.6-12.8-19.2-12.8-28.8s3.2-22.4 12.8-28.8l60.8-60.8c6.4-9.6 16-16 28.8-16s22.4 3.2 28.8 12.8l131.2 131.2 131.2-131.2c9.6-9.6 19.2-12.8 28.8-12.8s22.4 3.2 28.8 12.8l60.8 60.8c9.6 9.6 12.8 19.2 12.8 28.8s-3.2 22.4-12.8 28.8l-131.2 131.2 131.2 131.2c9.6 9.6 12.8 19.2 12.8 32zM755.2 838.4c-12.8 12.8-28.8 25.6-44.8 32 0 0 0 0-3.2 3.2 0 0-3.2 0-3.2 0-3.2 0-6.4 3.2-6.4 3.2-3.2 3.2-9.6 3.2-12.8 3.2-12.8 3.2-28.8 6.4-41.6 6.4h-480c-44.8 0-83.2-16-115.2-48s-48-70.4-48-115.2v0-476.8c0-44.8 16-83.2 48-115.2 12.8-12.8 28.8-25.6 44.8-32 0 0 0 0 3.2-3.2 0 0 3.2 0 3.2 0 3.2 0 6.4-3.2 9.6-3.2s9.6-3.2 12.8-3.2c12.8-3.2 28.8-6.4 41.6-6.4h476.8c44.8 0 83.2 16 115.2 48s48 70.4 48 115.2v0 476.8c0 44.8-16 83.2-48 115.2zM729.6 390.4v-144c0-25.6-9.6-44.8-25.6-64-16-16-38.4-25.6-64-25.6h-473.6c-9.6 0-16 0-25.6 3.2-3.2 0-6.4 0-6.4 0s0 0 0 0c-12.8 3.2-22.4 9.6-35.2 22.4-16 16-25.6 38.4-25.6 64v476.8c0 25.6 9.6 44.8 25.6 64 16 16 38.4 25.6 64 25.6h473.6c9.6 0 16 0 25.6-3.2 3.2 0 6.4 0 6.4 0s0 0 0 0c12.8-3.2 25.6-9.6 35.2-22.4 16-16 25.6-38.4 25.6-64v-332.8z" />
<glyph unicode="&#xe945;" glyph-name="user_warn" d="M1014.4 118.4l-438.4 803.2c-6.4 12.8-16 22.4-25.6 28.8-12.8 6.4-25.6 9.6-38.4 9.6s-25.6-3.2-38.4-9.6c-12.8-6.4-19.2-16-25.6-28.8l-438.4-803.2c-12.8-25.6-12.8-48 0-73.6 6.4-9.6 16-19.2 25.6-25.6 12.8-6.4 22.4-9.6 35.2-9.6h876.8c12.8 0 25.6 3.2 35.2 9.6 12.8 6.4 19.2 16 25.6 25.6 19.2 25.6 19.2 48 6.4 73.6zM582.4 176c0-6.4-3.2-12.8-6.4-16s-9.6-6.4-16-6.4h-92.8c-6.4 0-12.8 3.2-16 6.4s-6.4 9.6-6.4 16v80c0 6.4 3.2 12.8 6.4 16s9.6 6.4 16 6.4h92.8c6.4 0 12.8-3.2 16-6.4s6.4-9.6 6.4-16v-80zM582.4 361.6c0-6.4-3.2-12.8-6.4-16s-9.6-6.4-16-6.4h-92.8c-6.4 0-12.8 3.2-16 6.4s-6.4 9.6-6.4 16l-12.8 278.4c0 6.4 3.2 12.8 6.4 16s9.6 6.4 16 6.4h115.2c6.4 0 12.8-3.2 16-6.4s6.4-9.6 6.4-16l-9.6-278.4z" />
<glyph unicode="&#xe946;" glyph-name="male" horiz-adv-x="576" d="M585.152 557.728v-237.728q0-22.848-16-38.848t-38.848-16-38.848 16-16 38.848v201.152h-36.576v-521.152q0-26.272-18.848-45.152t-45.152-18.848-45.152 18.848-18.848 45.152v265.152h-36.576v-265.152q0-26.272-18.848-45.152t-45.152-18.848-45.152 18.848-18.848 45.152v521.152h-36.576v-201.152q0-22.848-16-38.848t-38.848-16-38.848 16-16 38.848v237.728q0 45.728 32 77.728t77.728 32h365.728q45.728 0 77.728-32t32-77.728zM420.576 813.728q0-53.152-37.44-90.56t-90.56-37.44-90.56 37.44-37.44 90.56 37.44 90.56 90.56 37.44 90.56-37.44 37.44-90.56z" />
<glyph unicode="&#xe947;" glyph-name="quote" horiz-adv-x="960" d="M438.848 411.424v-219.424q0-45.728-32-77.728t-77.728-32h-219.424q-45.728 0-77.728 32t-32 77.728v402.272q0 59.424 23.136 113.44t62.56 93.44 93.44 62.56 113.44 23.136h36.576q14.848 0 25.728-10.848t10.848-25.728v-73.152q0-14.848-10.848-25.728t-25.728-10.848h-36.576q-60.576 0-103.424-42.848t-42.848-103.424v-18.272q0-22.848 16-38.848t38.848-16h128q45.728 0 77.728-32t32-77.728zM950.848 411.424v-219.424q0-45.728-32-77.728t-77.728-32h-219.424q-45.728 0-77.728 32t-32 77.728v402.272q0 59.424 23.136 113.44t62.56 93.44 93.44 62.56 113.44 23.136h36.576q14.848 0 25.728-10.848t10.848-25.728v-73.152q0-14.848-10.848-25.728t-25.728-10.848h-36.576q-60.576 0-103.424-42.848t-42.848-103.424v-18.272q0-22.848 16-38.848t38.848-16h128q45.728 0 77.728-32t32-77.728z" />
<glyph unicode="&#xe948;" glyph-name="donate" horiz-adv-x="1170" d="M585.143 9.143c-7.314 0-14.629 0-21.943 7.314l-358.4 343.771c-7.314 7.314-7.314 14.629-14.629 14.629-7.314 7.314-21.943 21.943-36.571 43.886-14.629 14.629-21.943 36.571-36.571 51.2-14.629 21.943-21.943 43.886-29.257 73.143-7.314 21.943-14.629 51.2-14.629 73.143 0 80.457 21.943 146.286 73.143 197.486 51.2 43.886 117.029 73.143 197.486 73.143 21.943 0 51.2-7.314 73.143-14.629s43.886-21.943 65.829-36.571 43.886-21.943 58.514-36.571 29.257-21.943 43.886-36.571c14.629 14.629 29.257 29.257 43.886 36.571 14.629 14.629 29.257 29.257 51.2 43.886s43.886 21.943 65.829 36.571c21.943 7.314 51.2 14.629 73.143 14.629 87.771 0 153.6-21.943 197.486-73.143 51.2-43.886 73.143-109.714 73.143-197.486s-43.886-168.229-131.657-256l-358.4-343.771c7.314-14.629-7.314-14.629-14.629-14.629z" />
<glyph unicode="&#xe949;" glyph-name="phpBB_logo" horiz-adv-x="2993" d="M533.592 504.495c0-91.693-21.888-166.23-66.255-223.020s-105.89-85.185-185.16-85.185c-29.578 0-56.79 7.69-81.636 23.071s-44.367 35.494-59.157 60.34v-246.683h-43.776c-26.029 0-49.1 8.873-68.622 26.62s-28.987 40.818-28.987 69.805v336.601c0 97.608 23.071 174.512 68.622 230.119 46.142 56.199 115.947 84.002 210.597 84.002 71.579 0 131.919-27.804 181.019-83.411s73.354-119.496 73.354-192.259zM390.433 468.409c0 65.072-10.648 112.397-32.536 143.159-21.888 30.17-55.016 45.551-99.975 45.551-37.269 0-66.255-14.789-87.552-44.367s-31.353-69.213-31.353-118.313c0-55.016 12.423-98.2 37.269-128.961s58.565-46.142 100.566-46.142c33.719 0 61.523 13.606 82.228 41.41 20.705 27.212 31.353 63.298 31.353 107.665zM1066.001 214.036h-45.551c-28.987 0-52.058 8.282-68.622 24.254-17.155 15.972-25.437 39.043-25.437 68.622v228.344c0 43.776-10.057 75.72-30.761 96.425-20.113 20.705-47.325 31.353-80.453 31.353-26.029 0-49.692-10.648-69.805-31.945s-30.761-54.424-30.761-99.383v-317.079h-45.551c-63.298 0-95.242 31.353-95.242 93.467v651.905h43.776c31.945 0 56.199-8.282 72.763-24.254 17.155-15.972 25.437-37.86 25.437-64.481v-159.723c11.831 19.522 28.987 36.677 51.466 52.058s45.551 23.071 69.805 23.071c72.763 0 128.961-21.296 168.596-63.298 40.226-42.001 60.34-102.341 60.34-181.019v-328.319zM1664.074 501.537c0-91.693-21.888-166.23-66.255-223.020s-105.89-85.185-185.16-85.185c-29.578 0-56.79 7.69-81.636 23.071s-44.367 35.494-59.157 60.34v-246.683h-43.776c-26.029 0-49.1 8.873-68.622 26.62s-28.987 40.818-28.987 69.805v336.601c0 97.608 23.071 173.92 68.622 230.119 46.142 56.199 115.947 84.002 210.597 84.002 71.579 0 131.919-27.804 181.019-83.411s73.354-119.496 73.354-192.259zM1521.507 465.451c0 65.072-10.648 112.397-32.536 143.159-21.888 30.17-55.016 45.551-99.975 45.551-37.269 0-66.255-14.789-87.552-44.367s-31.353-69.213-31.353-118.313c0-55.016 12.423-98.2 37.269-128.961s58.565-46.142 100.566-46.142c33.719 0 61.523 13.606 82.228 41.41 20.705 27.212 31.353 63.298 31.353 107.665zM2227.836 437.056c0-68.622-23.663-122.454-70.396-162.681s-104.707-60.34-172.737-60.34h-76.904c-131.919 0-197.583 56.199-197.583 168.596v514.662c19.522 7.099 48.508 14.198 87.552 21.296s72.171 10.648 99.975 10.648h85.777c69.213 0 124.82-17.155 168.005-50.875 42.593-33.719 64.481-79.27 64.481-136.652 0-78.087-37.86-128.37-112.989-150.258 35.494-9.465 65.072-30.17 89.326-60.931 23.663-30.17 35.494-61.523 35.494-93.467zM2073.437 730.473c0 28.395-10.648 49.1-31.945 62.114s-47.325 19.522-77.495 19.522h-53.241c-10.648 0-30.761-2.366-60.931-7.099v-160.314h108.848c33.719 0 61.523 7.099 82.819 21.296 21.296 13.606 31.945 35.494 31.945 64.481zM2085.269 432.915c0 37.269-9.465 63.298-28.395 78.678s-49.692 23.071-92.876 23.071h-112.989v-146.117c0-12.423 5.916-23.071 18.339-31.353 11.831-8.873 26.62-13.014 43.776-13.014h57.973c37.269 0 65.664 7.69 85.185 23.663 18.93 15.972 28.987 37.86 28.987 65.072zM2795.147 437.056c0-68.622-23.663-122.454-70.396-162.681s-104.707-60.34-172.737-60.34h-76.904c-131.919 0-197.583 56.199-197.583 168.596v514.662c19.522 7.099 48.508 14.198 87.552 21.296 39.043 8.282 72.171 11.831 99.975 11.831h85.777c69.213 0 124.82-17.155 168.005-50.875 42.593-33.719 64.481-79.27 64.481-136.652 0-78.087-37.86-128.37-112.989-150.258 35.494-9.465 65.072-30.17 89.326-60.931 23.663-31.353 35.494-62.706 35.494-94.65zM2640.749 730.473c0 28.395-10.648 49.1-31.945 62.114s-47.325 19.522-77.495 19.522h-52.649c-10.648 0-30.761-2.366-60.931-7.099v-160.314h108.256c33.719 0 61.523 7.099 82.819 21.296 21.296 13.606 31.945 35.494 31.945 64.481zM2652.58 432.915c0 37.269-9.465 63.298-28.395 78.678s-49.692 23.071-92.876 23.071h-112.989v-146.117c0-12.423 5.916-23.071 18.339-31.353 11.831-8.873 26.62-13.014 43.776-13.014h57.973c37.269 0 65.664 7.69 85.185 23.663 18.93 15.972 28.987 37.86 28.987 65.072zM2962.56 922.731c20.113-20.113 30.17-43.776 30.17-72.171s-10.057-52.058-30.17-71.579c-20.113-20.113-43.776-29.578-72.171-29.578-27.804 0-52.058 10.057-71.579 29.578-20.113 20.113-29.578 43.776-29.578 71.579s10.057 52.058 29.578 72.171c20.113 20.113 43.776 29.578 71.579 29.578 28.395 0 52.649-9.465 72.171-29.578zM2948.954 792.587c15.972 15.972 24.254 35.494 24.254 57.973s-8.282 42.001-24.254 57.973c-15.972 15.972-35.494 24.254-57.973 24.254s-42.001-8.282-57.973-24.254-24.254-35.494-24.254-57.973 8.282-42.001 24.254-57.973c15.972-15.972 35.494-24.254 57.973-24.254s42.001 8.282 57.973 24.254zM2942.447 801.46c-2.958-2.958-5.916-4.733-7.69-5.916-2.366-0.592-5.324-1.183-8.873-1.183-10.648 0-18.339 5.324-23.071 15.972-0.592 1.775-1.775 4.141-3.549 8.282s-2.958 7.099-3.549 8.873c-1.183 1.775-2.366 3.549-4.733 5.916-1.775 1.775-4.733 2.958-7.099 3.549-2.958 0-4.733 0.592-6.507 1.183v-43.776h-11.831c-6.507 0-11.24 1.775-14.789 5.324s-5.324 7.69-5.324 13.014v92.876c9.465 3.549 21.296 4.733 34.311 4.733h13.014c12.423 0 23.071-2.958 30.761-10.057 7.69-6.507 11.831-14.789 11.831-25.437 0-14.198-7.099-24.254-21.296-29.578 2.366-1.183 4.733-2.958 6.507-4.733 1.775-2.366 3.549-4.141 4.141-5.324s2.366-4.141 4.141-8.282c1.775-4.141 2.958-7.099 3.549-8.282 3.549-7.099 7.69-13.014 11.24-16.564v-0.592zM2902.221 872.448c0 9.465-4.141 14.198-13.014 14.198h-6.507c-1.183 0-2.958 0-5.916-0.592v-23.663c2.366 0 6.507 0 12.423 0 3.549 0 7.099 1.183 9.465 2.958 2.366 1.183 3.549 4.141 3.549 7.099zM342.516-19.041c-8.873 0-16.564 1.183-23.663 4.141s-13.606 6.507-18.339 11.831-9.465 12.423-11.831 20.705c-2.958 8.282-4.141 17.747-4.141 28.987s1.775 20.705 4.733 28.395c2.958 8.282 7.099 14.789 11.831 20.113s11.24 9.465 18.339 12.423c7.69 2.958 15.381 4.733 23.663 4.733 7.099 0 13.606-1.183 20.113-2.958s12.423-4.141 17.155-6.507v-23.663h-1.775c-1.775 1.183-3.549 2.958-5.916 4.141-2.366 1.775-5.324 3.549-8.873 5.324-2.958 1.775-6.507 2.958-10.648 4.141s-7.69 1.775-11.24 1.775c-11.24 0-19.522-4.141-26.62-12.423-6.507-8.282-10.057-20.113-10.057-35.494 0-14.789 2.958-26.62 9.465-34.902s15.381-12.423 26.62-12.423c7.099 0 13.606 1.183 19.522 4.141s11.831 6.507 16.564 11.24h1.183v-23.663c-2.366-1.183-4.733-2.366-7.69-3.549s-5.916-2.366-8.282-2.958c-3.549-1.183-7.099-1.775-9.465-2.366-2.366-1.183-5.916-1.183-10.648-1.183zM465.562 86.849h-1.183c-1.775 0.592-2.958 0.592-4.733 0.592s-4.141 0-6.507 0c-5.916 0-11.24-1.183-17.155-3.549s-11.24-5.916-15.972-11.24v-89.326h-21.296v126.003h21.296v-18.93c7.69 7.099 14.198 11.831 20.113 14.198 5.916 2.958 11.24 4.141 16.564 4.141 2.366 0 3.549 0 4.733 0s2.366 0 3.549-0.592v-21.296zM535.958-19.633c-20.113 0-35.494 5.916-46.734 17.155s-16.564 27.212-16.564 47.917c0 20.705 5.324 36.677 15.972 49.1 10.648 11.831 24.846 18.339 42.001 18.339 7.69 0 14.789-1.183 20.705-3.549s11.24-5.916 15.972-10.648 7.69-10.648 10.648-17.747c2.366-7.099 3.549-15.381 3.549-25.437v-11.24h-87.552c0-14.789 3.549-26.029 11.24-33.719 7.099-7.69 17.747-11.831 30.761-11.831 4.733 0 9.465 0.592 13.606 1.775s8.282 2.366 11.831 4.141c3.549 1.775 7.099 3.549 9.465 4.733 2.366 1.775 4.733 2.958 6.507 4.733h1.183v-23.071c-2.366-1.183-5.324-2.366-9.465-3.549-3.549-1.183-7.099-2.366-10.057-3.549-4.141-1.183-7.69-1.775-11.24-2.366-2.958-0.592-7.099-1.183-11.831-1.183zM560.213 60.229c0 5.916-0.592 10.648-1.775 14.789s-2.958 7.69-5.324 10.648c-2.366 2.958-5.916 5.324-9.465 7.099s-8.873 2.366-14.198 2.366c-5.916 0-10.648-0.592-14.198-2.366-4.141-1.775-7.69-4.141-10.648-7.099-2.958-3.549-5.324-7.099-7.099-11.24s-2.958-8.873-2.958-14.198h65.664zM672.61-3.069c-1.775-1.183-4.141-2.958-7.099-5.324s-5.916-4.141-8.282-5.324c-3.549-1.775-7.099-3.549-10.648-4.733s-8.282-1.775-14.789-1.775c-5.324 0-10.057 1.183-14.789 2.958s-8.873 4.733-12.423 8.282c-3.549 3.549-5.916 7.69-8.282 13.014-1.775 5.324-2.958 10.648-2.958 15.972 0 8.873 1.775 15.972 5.324 22.479 3.549 5.916 9.465 11.24 17.747 14.789 7.099 2.958 15.381 5.324 24.846 6.507s20.113 2.366 31.353 2.958v4.141c0 4.733-0.592 8.873-2.366 11.831s-3.549 5.324-6.507 7.099c-2.958 1.775-5.916 2.958-10.057 3.549s-7.69 0.592-11.831 0.592c-4.733 0-10.648-0.592-17.155-2.366-6.507-1.183-13.014-3.549-20.113-6.507h-1.183v21.296c4.141 1.183 9.465 2.366 16.564 3.549s14.789 1.775 21.888 1.775c8.873 0 15.972-0.592 21.888-1.775s11.24-3.549 15.972-7.099c4.733-3.549 8.282-7.69 10.057-13.606s3.549-12.423 3.549-20.113v-85.777h-21.296v13.606zM672.61 14.678v34.902c-5.324-0.592-11.24-1.183-18.93-1.775s-14.198-1.775-18.93-3.549c-5.916-1.775-10.057-4.141-14.198-7.69-3.549-3.549-5.324-8.282-5.324-14.789 0-7.099 1.775-12.423 5.916-16.564s10.057-5.324 17.747-5.324c6.507 0 13.014 1.183 18.339 4.141 5.916 2.958 10.648 6.507 15.381 10.648zM761.936-19.041c-11.831 0-20.705 3.549-27.212 10.057s-9.465 17.155-9.465 31.353v69.805h-14.198v17.747h14.198v36.085h21.296v-36.085h39.043v-17.747h-39.043v-59.748c0-6.507 0-11.24 0.592-14.789s1.183-6.507 2.366-9.465c1.183-2.366 3.549-4.733 5.916-5.916 2.958-1.183 6.507-1.775 11.831-1.775 3.549 0 6.507 0.592 10.057 1.775 2.958 1.183 5.324 1.775 7.099 2.366h1.183v-18.93c-4.141-1.183-8.282-1.775-11.831-2.366-4.733-1.775-8.873-2.366-11.831-2.366zM824.051 130.625h-24.254v21.888h24.254v-21.888zM822.276-16.675h-21.296v126.003h21.296v-126.003zM952.421-16.675h-21.296v71.579c0 5.916 0 11.24-0.592 15.972s-1.775 8.873-2.958 11.831c-1.775 2.958-4.141 5.324-7.099 7.099s-7.099 2.366-12.423 2.366c-5.324 0-10.648-1.183-16.564-4.141-5.324-2.958-11.24-6.507-16.564-11.24v-94.059h-21.296v126.003h21.296v-14.198c6.507 5.916 12.423 10.057 18.93 13.014s12.423 4.733 19.522 4.733c12.423 0 21.888-4.141 28.987-12.423s10.648-20.113 10.648-35.494v-81.044zM986.731-36.788c1.183-0.592 3.549-1.183 6.507-2.366s5.916-1.775 9.465-2.958c4.141-1.183 7.69-1.775 10.648-2.366s7.099-1.183 10.648-1.183c6.507 0 11.831 0.592 16.564 2.366s8.282 4.141 10.648 7.099c2.366 2.958 4.141 6.507 5.324 10.648s1.183 8.873 1.183 13.606v11.24c-5.916-4.733-11.24-8.873-16.564-11.24s-12.423-3.549-20.705-3.549c-14.198 0-26.029 5.324-34.311 15.972s-13.014 26.029-13.014 46.142c0 10.648 1.183 19.522 4.141 27.804s7.099 14.789 11.831 20.705c4.733 5.324 10.057 9.465 16.564 12.423s13.014 4.141 20.113 4.141c6.507 0 12.423-0.592 17.155-2.366s9.465-3.549 14.198-6.507l1.183 5.324h20.113v-111.806c0-21.296-4.733-37.269-14.198-46.734s-23.663-14.789-42.593-14.789c-5.916 0-12.423 0.592-18.93 1.183-6.507 1.183-12.423 2.366-17.747 4.141v21.888h1.775zM1057.719 17.636v69.213c-5.324 2.366-10.057 4.141-14.789 5.324s-8.873 1.775-13.606 1.775c-10.648 0-18.93-4.141-25.437-11.831s-9.465-18.93-9.465-33.719c0-14.198 2.366-24.846 7.099-31.945s12.423-10.648 23.071-10.648c5.324 0 11.24 1.183 17.155 3.549s11.24 4.141 15.972 8.282zM1401.419-17.858c-8.873 0-16.564 1.183-23.663 4.141s-13.606 6.507-18.339 11.831-9.465 12.423-11.831 20.705c-2.958 8.282-4.141 17.747-4.141 28.987s1.775 20.705 4.733 28.395c2.958 8.282 7.099 14.789 11.831 20.113s11.24 9.465 18.339 12.423c7.69 2.958 15.381 4.733 23.663 4.733 7.099 0 13.606-1.183 20.113-2.958s12.423-4.141 17.155-6.507v-23.663h-1.775c-1.775 1.183-3.549 2.958-5.916 4.141-2.366 1.775-5.324 3.549-8.873 5.324-2.958 1.775-6.507 2.958-10.648 4.141s-7.69 1.775-11.24 1.775c-11.24 0-19.522-4.141-26.62-12.423-6.507-8.282-10.057-20.113-10.057-35.494 0-14.789 2.958-26.62 9.465-34.902s15.381-12.423 26.62-12.423c7.099 0 13.606 1.183 19.522 4.141s11.831 6.507 16.564 11.24h1.183v-23.663c-2.366-1.183-4.733-2.366-7.69-3.549s-5.916-2.366-8.282-2.958c-3.549-1.183-7.099-1.775-9.465-2.366s-5.916-1.183-10.648-1.183zM1561.733 47.806c0-21.296-5.324-37.269-15.381-49.1-10.057-11.24-23.663-17.155-40.818-17.155-17.747 0-31.353 5.916-41.41 17.747s-14.789 27.804-14.789 48.508c0 21.296 5.324 37.269 15.381 49.1s23.663 17.747 40.818 17.747c17.155 0 30.761-5.916 40.818-17.155 10.057-12.423 15.381-28.395 15.381-49.692zM1539.845 47.806c0 16.564-2.958 28.395-8.873 36.085s-14.198 11.831-25.437 11.831c-11.24 0-19.522-4.141-25.437-11.831s-8.873-20.113-8.873-36.085c0-15.972 2.958-27.804 8.873-36.085s14.198-12.423 25.437-12.423c10.648 0 19.522 4.141 25.437 11.831 5.916 8.873 8.873 20.705 8.873 36.677zM1726.188-14.9v72.763c0 5.916 0 11.24-0.592 15.972s-1.183 8.873-2.958 11.831c-1.775 2.958-3.549 5.324-6.507 6.507s-6.507 2.366-11.24 2.366c-4.141 0-8.873-1.183-14.198-4.141-4.733-2.958-10.057-6.507-15.381-11.831 0-1.183 0-2.958 0-4.733s0-4.141 0-6.507v-82.819h-21.296v72.763c0 5.916 0 11.24-0.592 15.972s-1.183 8.873-2.958 11.831c-1.775 2.958-3.549 5.324-6.507 6.507s-6.507 2.366-11.24 2.366c-4.733 0-9.465-1.183-14.198-4.141s-10.057-6.507-14.789-10.648v-94.059h-21.296v126.003h21.296v-14.198c5.324 5.324 11.24 10.057 16.564 13.014s11.24 4.733 17.747 4.733c7.69 0 14.198-1.775 19.522-5.324 5.916-3.549 10.057-8.873 13.014-16.564 6.507 7.099 12.423 12.423 18.93 15.972s12.423 5.324 20.113 5.324c5.324 0 10.057-0.592 14.789-2.366 4.141-1.775 8.282-4.141 11.831-8.282 3.549-3.549 5.916-8.873 7.69-14.198 1.775-5.916 2.958-13.014 2.958-21.296v-82.819h-20.705zM1919.63-14.9v72.763c0 5.916 0 11.24-0.592 15.972s-1.183 8.873-2.958 11.831c-1.775 2.958-3.549 5.324-6.507 6.507s-6.507 2.366-11.24 2.366c-4.141 0-8.873-1.183-14.198-4.141-4.733-2.958-10.057-6.507-15.381-11.831 0-1.183 0-2.958 0-4.733s0-4.141 0-6.507v-82.819h-21.296v72.763c0 5.916 0 11.24-0.592 15.972s-1.183 8.873-2.958 11.831c-1.775 2.958-3.549 5.324-6.507 6.507s-6.507 2.366-11.24 2.366c-4.733 0-9.465-1.183-14.198-4.141s-10.057-6.507-14.789-10.648v-94.059h-21.296v126.003h21.296v-14.198c5.324 5.324 11.24 10.057 16.564 13.014s11.24 4.733 17.747 4.733c7.69 0 14.198-1.775 19.522-5.324 5.916-3.549 10.057-8.873 13.014-16.564 6.507 7.099 12.423 12.423 18.93 15.972s12.423 5.324 20.113 5.324c5.324 0 10.057-0.592 14.789-2.366 4.141-1.775 8.282-4.141 11.831-8.282 3.549-3.549 5.916-8.873 7.69-14.198 1.775-5.916 2.958-13.014 2.958-21.296v-82.819h-20.705zM2068.705-14.9h-21.296v14.198c-6.507-5.916-13.014-10.057-18.339-13.014-5.916-2.958-12.423-4.733-19.522-4.733-5.324 0-10.648 1.183-15.381 2.958s-8.873 4.733-12.423 8.282c-3.549 4.141-6.507 8.873-8.282 14.789s-2.958 13.014-2.958 21.888v81.636h21.296v-71.579c0-6.507 0-12.423 0.592-16.564s1.775-8.282 3.549-11.831c1.775-2.958 4.141-5.324 7.099-7.099s7.099-2.366 13.014-2.366c5.324 0 10.648 1.183 16.564 4.141s11.24 6.507 15.972 10.648v94.059h21.296v-125.412zM2198.258-14.9h-21.296v71.579c0 5.916 0 11.24-0.592 15.972s-1.775 8.873-2.958 11.831c-1.775 2.958-4.141 5.324-7.099 7.099s-7.099 2.366-12.423 2.366c-5.324 0-10.648-1.183-16.564-4.141-5.324-2.958-11.24-6.507-16.564-11.24v-94.059h-21.296v126.003h21.296v-14.198c6.507 5.916 12.423 10.057 18.93 13.014s12.423 4.733 19.522 4.733c12.423 0 21.888-4.141 28.987-12.423s10.648-20.113 10.648-35.494v-81.044zM2250.907 131.808h-24.254v21.888h24.254v-21.888zM2249.724-14.9h-21.296v126.003h21.296v-126.003zM2319.528-17.266c-11.831 0-20.705 3.549-27.212 10.057s-9.465 17.155-9.465 31.353v69.805h-14.198v17.747h14.198v36.085h21.296v-36.085h39.043v-17.747h-39.043v-59.748c0-6.507 0-11.24 0.592-14.789 0-3.549 1.183-6.507 2.366-9.465 1.183-2.366 3.549-4.733 5.916-5.916 2.958-1.183 6.507-1.775 11.831-1.775 3.549 0 6.507 0.592 10.057 1.775 2.958 1.183 5.324 1.775 7.099 2.366h1.183v-18.93c-4.141-1.183-8.282-1.775-11.831-2.366-4.733-2.366-8.873-2.366-11.831-2.366zM2381.643 131.808h-24.254v21.888h24.254v-21.888zM2379.868-14.9h-21.296v126.003h21.296v-126.003zM2465.645-17.858c-20.113 0-35.494 5.916-46.734 17.155s-16.564 27.212-16.564 47.917c0 20.705 5.324 36.677 15.972 49.1 10.648 11.831 24.846 18.339 42.001 18.339 7.69 0 14.789-1.183 20.705-3.549s11.24-5.916 15.972-10.648 7.69-10.648 10.648-17.747c2.366-7.099 3.549-15.381 3.549-25.437v-11.24h-86.96c0-14.789 3.549-26.029 11.24-33.719 7.099-7.69 17.747-11.831 30.761-11.831 4.733 0 9.465 0.592 13.606 1.775s8.282 2.366 11.831 4.141c3.549 1.775 7.099 3.549 9.465 4.733 2.366 1.775 4.733 2.958 6.507 4.733h1.183v-23.071c-2.366-1.183-5.324-2.366-9.465-3.549-3.549-1.183-7.099-2.366-10.057-3.549-4.141-1.183-7.69-1.775-11.24-2.366-2.958-1.183-7.099-1.183-12.423-1.183zM2490.491 62.003c0 5.916-0.592 10.648-1.775 14.789s-2.958 7.69-5.324 10.648c-2.366 2.958-5.916 5.324-9.465 7.099s-8.873 2.366-14.198 2.366c-5.916 0-10.648-0.592-14.198-2.366-4.141-1.775-7.69-4.141-10.648-7.099-2.958-3.549-5.324-7.099-7.099-11.24s-2.958-8.873-2.958-14.198h65.664zM2566.803-17.858c-8.282 0-16.564 1.183-23.663 3.549s-13.606 4.733-18.339 7.099v23.663h1.183c1.775-1.183 4.141-2.958 6.507-4.733s5.916-3.549 9.465-5.324c3.549-1.775 7.69-2.958 11.831-4.141s8.873-1.775 13.606-1.775c3.549 0 7.099 0.592 10.648 1.183s6.507 1.775 8.282 2.958c2.366 1.775 4.733 3.549 5.916 5.324s1.775 4.733 1.775 8.873c0 5.324-1.183 8.873-4.141 11.24s-7.69 4.733-14.789 6.507c-2.958 0.592-6.507 1.183-10.648 2.366s-8.282 1.775-11.831 2.958c-9.465 2.958-16.564 7.099-20.705 13.014s-6.507 13.014-6.507 21.296c0 11.24 4.141 20.705 13.014 27.804 8.282 7.099 20.113 10.648 34.311 10.648 7.099 0 14.198-0.592 21.296-2.366s13.014-4.141 17.747-6.507v-22.479h-1.183c-5.324 4.141-11.24 7.69-18.339 10.057s-13.606 3.549-20.113 3.549c-7.099 0-13.014-1.183-17.747-4.141s-7.099-7.099-7.099-13.014c0-5.324 1.183-9.465 4.141-11.831s7.69-4.733 13.606-6.507c2.958-0.592 6.507-1.775 10.648-2.366s7.69-1.775 12.423-2.958c9.465-2.366 16.564-5.916 21.296-11.831 4.733-5.324 7.099-13.014 7.099-21.888 0-5.324-1.183-10.648-2.958-15.381-2.366-4.733-5.324-8.873-9.465-12.423-4.733-3.549-9.465-6.507-15.381-8.282-6.507-3.549-13.606-4.141-21.888-4.141z" />
</font>
</defs>
</svg>
