<!-- Generated by IcoMoon.io -->
<svg version="1.1" xmlns="http://www.w3.org/2000/svg" width="32" height="32" viewBox="0 0 32 32">
<title>forum_topic_move2</title>
<path d="M7.954 20.297l11.063 10.971 3.2-3.2-11.063-11.063c-1.737-1.737-1.829-4.571-0.091-6.309s4.663-1.737 6.4 0l6.4 6.4-1.829 2.011c-0.091 0.091-0.274 0.274-0.183 0.457-0.091 0.183-0.091 0.366 0.091 0.549 0.091 0.091 0.274 0.274 0.457 0.183h7.223c0.183 0 0.366-0.183 0.457-0.183 0.091-0.091 0.274-0.274 0.183-0.457v-7.314c0-0.274-0.091-0.366-0.183-0.549-0.091-0.091-0.366-0.274-0.457-0.274-0.183 0-0.274 0-0.457 0.183l-2.103 2.103-6.4-6.4c-3.566-3.474-9.234-3.383-12.709 0.091-3.566 3.566-3.566 9.143 0 12.8z"></path>
</svg>
