<!-- Generated by IcoMoon.io -->
<svg version="1.1" xmlns="http://www.w3.org/2000/svg" width="32" height="32" viewBox="0 0 32 32">
<title>forum_topic_hot</title>
<path d="M11.154 29.257c-1.829-3.657-0.823-5.76 0.549-7.771 1.554-2.194 1.92-4.389 1.92-4.389s1.097 1.554 0.64 3.84c2.103-2.286 2.469-5.943 2.194-7.406 4.663 3.2 6.583 10.331 3.931 15.543 14.263-8.046 3.566-20.206 1.737-21.486 0.64 1.371 0.731 3.657-0.457 4.846-2.194-8.046-7.406-9.783-7.406-9.783 0.64 4.206-2.286 8.686-5.029 12.16-0.091-1.737-0.183-2.834-1.006-4.389-0.183 3.017-2.469 5.486-3.109 8.503-1.006 4.206 0.457 7.131 6.034 10.331v0 0z"></path>
</svg>
