<?xml version="1.0" encoding="utf-8"?>
<!-- Generator: Adobe Illustrator 13.0.0, SVG Export Plug-In . SVG Version: 6.00 Build 14948)  -->
<!DOCTYPE svg PUBLIC "-//W3C//DTD SVG 1.1//EN" "http://www.w3.org/Graphics/SVG/1.1/DTD/svg11.dtd">
<svg version="1.1" id="Calque_1" xmlns="http://www.w3.org/2000/svg" xmlns:xlink="http://www.w3.org/1999/xlink" x="0px" y="0px"
	 width="161.8px" height="54.7px" viewBox="0 0 161.8 54.7" enable-background="new 0 0 161.8 54.7" xml:space="preserve">
<g>
	<path fill="#FFFFFF" stroke="#FFFFFF" d="M26.7,23.1c0,4.5-1.1,8.2-3.3,11c-2.2,2.8-5.2,4.2-9.1,4.2c-1.5,0-2.8-0.4-4-1.1
		c-1.2-0.7-2.2-1.7-2.9-3v12.1H5.3c-1.3,0-2.4-0.4-3.4-1.3c-1-0.9-1.4-2-1.4-3.4V25c0-4.8,1.1-8.6,3.4-11.3
		c2.3-2.8,5.7-4.1,10.4-4.1c3.5,0,6.5,1.4,8.9,4.1C25.4,16.3,26.7,19.5,26.7,23.1z M19.6,24.9c0-3.2-0.5-5.5-1.6-7s-2.7-2.2-4.9-2.2
		c-1.8,0-3.3,0.7-4.3,2.2s-1.6,3.4-1.6,5.8c0,2.7,0.6,4.8,1.8,6.3s2.9,2.3,4.9,2.3c1.7,0,3-0.7,4.1-2C19.1,28.8,19.6,27,19.6,24.9z"
		/>
	<path fill="#FFFFFF" stroke="#FFFFFF" d="M47.8,16.8h-0.3c-1.3-0.5-2.7-0.8-4-0.8c-3.2,0-4.7,2-4.7,5.9v15.8h-1.9
		c-1.6,0-2.8-0.4-3.7-1.1c-0.9-0.8-1.3-1.8-1.3-3.2V20.6c0-3,0.8-5.6,2.5-7.6c1.7-2.1,4.3-3.1,7.7-3.1c1.9,0,3.4,0.4,4.3,1.3
		c0.9,0.9,1.4,1.9,1.4,3.2V16.8z"/>
	<path fill="#FFFFFF" stroke="#FFFFFF" d="M50.3,24.4c0-4.3,1.2-7.9,3.6-10.7c2.4-2.8,5.7-4.2,10-4.2c4,0,7.1,1.4,9.5,4.1
		c2.3,2.7,3.5,6,3.5,9.8c0,4.3-1.2,7.9-3.6,10.7c-2.4,2.8-5.7,4.2-10,4.2c-4,0-7.1-1.4-9.5-4.1C51.6,31.5,50.3,28.2,50.3,24.4z
		 M69.9,24.4c0-5.8-2.2-8.8-6.5-8.8c-1.9,0-3.4,0.7-4.4,2.1c-1,1.4-1.5,3.3-1.5,5.7c0,5.8,2.2,8.7,6.5,8.7c1.9,0,3.4-0.7,4.4-2.1
		C69.4,28.6,69.9,26.7,69.9,24.4z"/>
	<path fill="#FFFFFF" stroke="#FFFFFF" d="M98.3,7.1h-0.2c-1.2-0.4-2.6-0.6-4-0.6c-3.3,0-4.9,1.5-4.9,4.6v2.4h7.9v1.9
		c0,1.2-0.5,2.1-1.5,2.8c-1,0.7-2.1,1.1-3.4,1.1h-3v18.4h-2.8c-1.1,0-2.1-0.4-2.9-1.2c-0.8-0.8-1.2-1.8-1.2-2.9V10.5
		c0-1.1,0.2-2.1,0.6-3.2c0.4-1.1,1-2.2,1.8-3.2C85.5,3,86.6,2.2,88,1.5c1.4-0.7,3.1-1,5-1c1.5,0,2.8,0.4,3.8,1.2
		c1,0.8,1.5,1.8,1.5,3.2V7.1L98.3,7.1z"/>
	<path fill="#FFFFFF" stroke="#FFFFFF" d="M114.6,33.8c0,2.8-1.5,4.1-4.6,4.1c-2.8,0-5-0.7-6.5-2.2s-2.2-3.6-2.2-6.4V0.9h1.9
		c1.6,0,2.9,0.4,3.7,1.2c0.8,0.8,1.2,1.9,1.2,3.3v23.2c0,1.4,0.4,2.3,1.1,2.8c0.7,0.5,1.9,0.8,3.6,0.8h1.8V33.8z"/>
	<path fill="#FFFFFF" stroke="#FFFFFF" d="M139.3,28.3c0,2.9-1,5.3-2.9,7.1s-4.4,2.8-7.5,2.8h-1.4c-3.2,0-5.9-0.8-7.9-2.4
		c-2.1-1.8-3.1-3.9-3.1-6.4c0-2.7,1.1-4.8,3.2-6.3c2.2-1.5,5.6-2.3,10.4-2.3h2.4v-0.4c0-1.9-0.5-3.2-1.4-4c-0.9-0.7-2.4-1.1-4.5-1.1
		c-2.2,0-4.1,0.3-5.5,1c-1.5,0.6-2.5,1.4-3.2,2.2h-0.3v-2.2c0-1.8,0.8-3.3,2.5-4.7s4.2-2,7.5-2c1.6,0,3.1,0.2,4.4,0.6
		c1.3,0.4,2.5,1.1,3.6,2c1.1,0.9,2,2.2,2.6,3.9c0.6,1.7,0.9,3.6,0.9,5.9v6.3H139.3z M132.6,28.3v-2.6h-2.3c-2.5,0-4.2,0.3-5.2,0.8
		c-1,0.6-1.5,1.4-1.5,2.6c0,1.1,0.4,1.9,1.3,2.5c0.8,0.6,2,0.9,3.5,0.9C131.1,32.6,132.6,31.1,132.6,28.3z"/>
	<path fill="#FFFFFF" stroke="#FFFFFF" d="M145,11.2c0-1.3,0.1-2.3,0.4-3c0.3-0.7,0.8-1.5,1.6-2.4c1.1-1.3,2.2-1.9,3.2-1.9h1.6v6.2
		h9.5v2.8c0,0.8-0.4,1.6-1.1,2.2c-0.7,0.7-1.7,1-3,1h-5.5v10.8c0,3.3,1.4,4.9,4.3,4.9c2.2,0,3.9-0.3,4.9-1h0.3v2.4
		c0,1.4-0.5,2.6-1.6,3.4c-1,0.8-2.5,1.2-4.5,1.2c-3.4,0-6-0.9-7.7-2.7c-1.7-1.8-2.6-4.3-2.6-7.5V11.2H145z"/>
</g>
<g>
	<path fill="#FFFFFF" d="M13.1,47.5h1.2v0.8c0.2-0.3,0.4-0.5,0.7-0.6s0.6-0.2,0.9-0.2c0.6,0,1.1,0.2,1.5,0.7s0.6,1.1,0.6,2
		s-0.2,1.5-0.6,2s-0.9,0.7-1.5,0.7c-0.3,0-0.5-0.1-0.8-0.2c-0.3-0.1-0.5-0.3-0.7-0.6v2.6H13L13.1,47.5L13.1,47.5z M14.4,50.1
		c0,0.6,0.1,1,0.3,1.3c0.2,0.3,0.5,0.4,0.8,0.4s0.6-0.1,0.8-0.4c0.2-0.3,0.3-0.7,0.3-1.3c0-0.5-0.1-0.9-0.3-1.2
		c-0.2-0.3-0.5-0.4-0.8-0.4s-0.6,0.1-0.8,0.4C14.6,49.2,14.4,49.5,14.4,50.1z"/>
	<path fill="#FFFFFF" d="M18.9,50.1c0-0.5,0.1-0.9,0.3-1.3c0.2-0.4,0.5-0.8,1-1c0.5-0.2,0.9-0.3,1.4-0.3c0.8,0,1.4,0.3,1.9,0.8
		s0.8,1.2,0.8,1.9c0,0.8-0.3,1.4-0.8,2C23,52.7,22.4,53,21.6,53c-0.5,0-0.9-0.1-1.4-0.3c-0.5-0.2-0.8-0.5-1-0.9
		C19.1,51.2,18.9,50.7,18.9,50.1z M20.3,50.1c0,0.5,0.1,0.9,0.4,1.2c0.3,0.3,0.5,0.4,0.9,0.4s0.7-0.1,0.9-0.4
		c0.2-0.3,0.4-0.7,0.4-1.2s-0.1-0.9-0.4-1.2s-0.5-0.4-0.9-0.4s-0.7,0.1-0.9,0.4C20.6,49.2,20.3,49.6,20.3,50.1z"/>
	<path fill="#FFFFFF" d="M28.8,52.7v-0.8c-0.2,0.3-0.4,0.5-0.7,0.7c-0.3,0.2-0.6,0.2-1,0.2c-0.3,0-0.7-0.1-0.9-0.2
		c-0.2-0.1-0.5-0.4-0.6-0.6c-0.1-0.2-0.2-0.7-0.2-1.1v-3.3h1.4v2.3c0,0.7,0,1.2,0.1,1.3c0.1,0.2,0.1,0.3,0.3,0.4
		c0.1,0.1,0.3,0.1,0.5,0.1c0.2,0,0.4-0.1,0.6-0.2c0.2-0.1,0.3-0.3,0.4-0.5c0.1-0.2,0.1-0.7,0.1-1.4v-2.2h1.4v5.2L28.8,52.7
		L28.8,52.7z"/>
	<path fill="#FFFFFF" d="M32.8,52.7h-1.5v-5.2h1.3v0.7c0.2-0.3,0.4-0.6,0.6-0.7c0.2-0.1,0.4-0.2,0.6-0.2c0.3,0,0.6,0.1,0.9,0.3
		l-0.4,1.3c-0.2-0.1-0.4-0.2-0.6-0.2c-0.2,0-0.4,0.1-0.5,0.2c-0.1,0.1-0.2,0.3-0.3,0.6c-0.1,0.3-0.1,0.9-0.1,1.7V52.7L32.8,52.7z"/>
	<path fill="#FFFFFF" d="M38.1,47.5h1.2v0.8c0.2-0.3,0.4-0.5,0.7-0.6s0.6-0.2,0.9-0.2c0.6,0,1.1,0.2,1.5,0.7s0.6,1.1,0.6,2
		s-0.2,1.5-0.6,2c-0.4,0.4-0.9,0.7-1.5,0.7c-0.3,0-0.5-0.1-0.8-0.2c-0.3-0.1-0.5-0.3-0.7-0.6v2.6H38L38.1,47.5L38.1,47.5z
		 M39.4,50.1c0,0.6,0.1,1,0.3,1.3c0.2,0.3,0.5,0.4,0.8,0.4s0.6-0.1,0.8-0.4c0.2-0.3,0.3-0.7,0.3-1.3c0-0.5-0.1-0.9-0.3-1.2
		c-0.2-0.3-0.5-0.4-0.8-0.4s-0.6,0.1-0.8,0.4C39.6,49.2,39.4,49.5,39.4,50.1z"/>
	<path fill="#FFFFFF" d="M45.6,45.6v2.6c0.4-0.5,1-0.8,1.6-0.8c0.3,0,0.6,0.1,0.9,0.2c0.3,0.1,0.4,0.3,0.6,0.4
		c0.2,0.1,0.2,0.4,0.3,0.6c0.1,0.2,0.1,0.6,0.1,1v3h-1.5v-2.7c0-0.5,0-0.9-0.1-1s-0.1-0.3-0.3-0.3c-0.1-0.1-0.3-0.1-0.5-0.1
		c-0.2,0-0.4,0.1-0.6,0.2c-0.2,0.1-0.2,0.2-0.3,0.4c-0.1,0.2-0.1,0.6-0.1,1v2.6h-1.4v-7.2L45.6,45.6L45.6,45.6z"/>
	<path fill="#FFFFFF" d="M50.3,47.5h1.3v0.8c0.2-0.3,0.4-0.5,0.7-0.6c0.3-0.1,0.6-0.2,0.9-0.2c0.6,0,1.1,0.2,1.5,0.7
		c0.4,0.5,0.6,1.1,0.6,2s-0.2,1.5-0.6,2c-0.4,0.5-0.9,0.7-1.5,0.7c-0.3,0-0.5-0.1-0.8-0.2c-0.3-0.1-0.5-0.3-0.7-0.6v2.6h-1.4V47.5z
		 M51.7,50.1c0,0.6,0.1,1,0.3,1.3s0.5,0.4,0.8,0.4c0.3,0,0.6-0.1,0.8-0.4c0.2-0.3,0.3-0.7,0.3-1.3c0-0.5-0.1-0.9-0.3-1.2
		c-0.2-0.3-0.5-0.4-0.8-0.4c-0.3,0-0.6,0.1-0.8,0.4S51.7,49.5,51.7,50.1z"/>
	<path fill="#FFFFFF" d="M56.4,45.6h2.9c0.6,0,1,0,1.3,0.1c0.3,0,0.5,0.1,0.7,0.3c0.2,0.2,0.4,0.3,0.5,0.6c0.1,0.2,0.2,0.5,0.2,0.8
		s-0.1,0.6-0.3,0.9c-0.2,0.3-0.4,0.5-0.7,0.6c0.4,0.1,0.8,0.3,1,0.6c0.2,0.3,0.4,0.7,0.4,1.1c0,0.3-0.1,0.6-0.2,1
		c-0.2,0.3-0.4,0.6-0.6,0.7c-0.3,0.2-0.6,0.3-1,0.3c-0.2,0-0.8,0-1.7,0h-2.4v-7H56.4L56.4,45.6z M57.9,46.8v1.7h0.9c0.6,0,0.9,0,1,0
		c0.2,0,0.4-0.1,0.6-0.3c0.1-0.1,0.2-0.3,0.2-0.6c0-0.2-0.1-0.4-0.2-0.5s-0.3-0.2-0.5-0.3c-0.1,0-0.6,0-1.2,0H57.9z M57.9,49.6v1.9
		h1.4c0.5,0,0.9,0,1,0c0.2,0,0.4-0.1,0.5-0.3c0.1-0.2,0.2-0.4,0.2-0.6c0-0.2-0.1-0.4-0.2-0.5c-0.1-0.1-0.3-0.3-0.5-0.3
		c-0.2,0-0.6-0.1-1.3-0.1L57.9,49.6L57.9,49.6z"/>
	<path fill="#FFFFFF" d="M63.7,45.6h2.9c0.6,0,1,0,1.3,0.1c0.3,0,0.5,0.1,0.7,0.3c0.2,0.2,0.4,0.3,0.5,0.6c0.1,0.2,0.2,0.5,0.2,0.8
		S69.2,48,69,48.3c-0.2,0.3-0.4,0.5-0.7,0.6c0.4,0.1,0.8,0.3,1,0.6c0.2,0.3,0.4,0.7,0.4,1.1c0,0.3-0.1,0.6-0.2,1
		c-0.2,0.3-0.4,0.6-0.6,0.7c-0.3,0.2-0.6,0.3-1,0.3c-0.2,0-0.8,0-1.7,0h-2.4L63.7,45.6L63.7,45.6L63.7,45.6z M65.2,46.8v1.7h0.9
		c0.6,0,0.9,0,1,0c0.2,0,0.4-0.1,0.6-0.3c0.1-0.1,0.2-0.3,0.2-0.6c0-0.2-0.1-0.4-0.2-0.5c-0.1-0.1-0.3-0.2-0.5-0.3
		c-0.1,0-0.6,0-1.2,0H65.2z M65.2,49.6v1.9h1.3c0.5,0,0.9,0,1,0c0.2,0,0.4-0.1,0.5-0.3c0.1-0.2,0.2-0.4,0.2-0.6
		c0-0.2-0.1-0.4-0.2-0.5s-0.3-0.3-0.5-0.3s-0.6-0.1-1.3-0.1L65.2,49.6L65.2,49.6z"/>
	<path fill="#FFFFFF" d="M79.3,52.7v-1.4h1.4v1.4H79.3z"/>
	<path display="none" fill="#FFFFFF" d="M86.3,51.5v1.3h-4.8c0.1-0.5,0.2-0.9,0.5-1.4c0.3-0.4,0.8-1,1.5-1.7c0.6-0.6,1-1,1.1-1.2
		c0.2-0.3,0.3-0.6,0.3-0.8c0-0.3-0.1-0.5-0.2-0.7c-0.2-0.2-0.4-0.2-0.7-0.2c-0.3,0-0.5,0.1-0.7,0.3C83.1,47.3,83,47.6,83,48
		l-1.4-0.1c0.1-0.8,0.3-1.3,0.8-1.6c0.5-0.3,1-0.5,1.6-0.5c0.7,0,1.3,0.2,1.7,0.6c0.4,0.4,0.6,0.9,0.6,1.4c0,0.3-0.1,0.6-0.2,0.9
		c-0.1,0.3-0.3,0.6-0.5,0.9c-0.2,0.2-0.5,0.5-0.9,0.9c-0.4,0.4-0.7,0.7-0.8,0.8c-0.1,0.1-0.2,0.3-0.3,0.4h2.7V51.5L86.3,51.5z"/>
	<path fill="#FFFFFF" d="M87.6,52.7v-1.4H89v1.4H87.6z"/>
	<path fill="#FFFFFF" d="M73.3,50.8l1.3-0.2c0,0.3,0.2,0.6,0.3,0.8s0.4,0.3,0.7,0.3c0.3,0,0.5-0.1,0.7-0.3c0.2-0.2,0.3-0.5,0.3-0.9
		c0-0.3-0.1-0.6-0.3-0.8c-0.2-0.2-0.4-0.3-0.7-0.3c-0.2,0-0.4,0-0.6,0.1l0.3-1.1c0.4,0,0.7-0.1,0.8-0.2c0.2-0.2,0.3-0.4,0.3-0.7
		c0-0.2-0.1-0.4-0.2-0.6c-0.1-0.2-0.3-0.2-0.6-0.2c-0.2,0-0.4,0.1-0.6,0.2s-0.3,0.4-0.3,0.7l-1.4-0.2c0.1-0.4,0.2-0.8,0.4-1
		c0.2-0.3,0.4-0.5,0.7-0.6c0.3-0.1,0.7-0.2,1.1-0.2c0.7,0,1.2,0.2,1.6,0.6c0.3,0.4,0.5,0.7,0.5,1.2c0,0.6-0.3,1.1-1,1.5
		c0.4,0.1,0.7,0.3,1,0.6c0.3,0.3,0.4,0.7,0.4,1.1c0,0.6-0.2,1.2-0.7,1.6s-1,0.7-1.7,0.7c-0.6,0-1.2-0.2-1.6-0.6
		C73.7,51.9,73.3,51.4,73.3,50.8z"/>
	<path fill="#FFFFFF" d="M81.8,50.8l1.3-0.2c0,0.3,0.2,0.6,0.3,0.8s0.4,0.3,0.7,0.3s0.5-0.1,0.7-0.3c0.2-0.2,0.3-0.5,0.3-0.9
		c0-0.3-0.1-0.6-0.3-0.8c-0.2-0.2-0.4-0.3-0.7-0.3c-0.2,0-0.4,0-0.6,0.1l0.3-1.1c0.4,0,0.7-0.1,0.8-0.2c0.2-0.2,0.3-0.4,0.3-0.7
		c0-0.2-0.1-0.4-0.2-0.6c-0.1-0.2-0.3-0.2-0.6-0.2c-0.2,0-0.4,0.1-0.6,0.2c-0.2,0.1-0.3,0.4-0.3,0.7l-1.4-0.2c0.1-0.4,0.2-0.8,0.4-1
		c0.2-0.3,0.4-0.5,0.7-0.6c0.3-0.1,0.7-0.2,1.1-0.2c0.7,0,1.2,0.2,1.6,0.6c0.3,0.4,0.5,0.7,0.5,1.2c0,0.6-0.3,1.1-1,1.5
		c0.4,0.1,0.7,0.3,1,0.6c0.3,0.3,0.4,0.7,0.4,1.1c0,0.6-0.2,1.2-0.7,1.6s-1,0.7-1.7,0.7c-0.6,0-1.2-0.2-1.6-0.6
		C82.2,51.9,81.8,51.4,81.8,50.8z"/>
</g>
<g display="none">
	<path display="inline" fill="#FFFFFF" d="M91.6,48.9c-0.4-0.1-0.6-0.4-0.8-0.6c-0.2-0.3-0.2-0.5-0.2-0.9c0-0.5,0.2-1,0.6-1.3
		c0.4-0.3,0.9-0.5,1.6-0.5c0.7,0,1.2,0.2,1.6,0.5c0.4,0.3,0.6,0.8,0.6,1.3c0,0.3-0.1,0.6-0.3,0.9c-0.2,0.3-0.4,0.5-0.7,0.6
		c0.4,0.2,0.7,0.4,0.9,0.7c0.2,0.3,0.3,0.7,0.3,1.1c0,0.7-0.2,1.2-0.6,1.6c-0.4,0.4-1.1,0.6-1.8,0.6c-0.7,0-1.2-0.2-1.5-0.5
		c-0.5-0.4-0.8-1-0.8-1.7c0-0.4,0.1-0.7,0.3-1.1C91,49.3,91.3,49.1,91.6,48.9z M91.8,50.6c0,0.4,0.1,0.7,0.3,0.9
		c0.2,0.2,0.4,0.3,0.7,0.3c0.3,0,0.5-0.1,0.7-0.3c0.2-0.2,0.3-0.5,0.3-0.9c0-0.3-0.1-0.6-0.3-0.8c-0.2-0.2-0.4-0.3-0.7-0.3
		c-0.3,0-0.6,0.1-0.7,0.3C92.1,50,91.8,50.3,91.8,50.6z M92,47.5c0,0.3,0.1,0.5,0.2,0.6c0.1,0.1,0.4,0.2,0.6,0.2
		c0.3,0,0.5-0.1,0.6-0.2c0.2-0.2,0.2-0.4,0.2-0.6c0-0.3-0.1-0.5-0.2-0.6c-0.2-0.2-0.4-0.2-0.6-0.2c-0.3,0-0.5,0.1-0.6,0.2
		C92.1,47,92,47.2,92,47.5z"/>
</g>
<g>
	<path fill="#FFFFFF" d="M92.8,45.7c0.7,0,1.2,0.2,1.6,0.7c0.5,0.6,0.7,1.6,0.7,2.9c0,1.4-0.2,2.3-0.7,2.9C94,52.7,93.5,53,92.8,53
		c-0.7,0-1.3-0.3-1.7-0.8c-0.4-0.5-0.6-1.5-0.6-2.9c0-1.3,0.2-2.3,0.7-2.9C91.5,45.9,92.1,45.7,92.8,45.7z M92.8,46.8
		c-0.2,0-0.3,0.1-0.4,0.2c-0.1,0.1-0.2,0.3-0.3,0.6c-0.1,0.4-0.1,1-0.1,1.8s0,1.4,0.1,1.7c0.1,0.3,0.2,0.5,0.3,0.6
		c0.1,0.1,0.3,0.2,0.4,0.2s0.3-0.1,0.4-0.2c0.1-0.1,0.2-0.3,0.3-0.6c0.1-0.4,0.1-0.9,0.1-1.8s0-1.4-0.1-1.7
		c-0.1-0.3-0.2-0.5-0.3-0.6C93.1,46.9,92.9,46.8,92.8,46.8z"/>
</g>
</svg>
